<?xml version="1.0" encoding="UTF-8"?>
<svg width="169px" height="31px" viewBox="0 0 169 31" version="1.1" xmlns="http://www.w3.org/2000/svg" xmlns:xlink="http://www.w3.org/1999/xlink">
    <!-- Generator: Sketch 51.1 (57501) - http://www.bohemiancoding.com/sketch -->
    <title>logo-dim-sum</title>
    <desc>Created with Sketch.</desc>
    <defs></defs>
    <g id="Page-1" stroke="none" stroke-width="1" fill="none" fill-rule="evenodd">
        <g id="logo-dim-sum" fill="#A9A9A9" fill-rule="nonzero">
            <polygon id="Shape" points="76.35 17.19 85.9 17.19 84.9 21.19 75.36 21.19"></polygon>
            <path d="M0,19.72 L0,19.4 C0,12.75 3.94,8.53 9.36,8.53 C12.085827,8.36870489 14.6643637,9.77835676 16,12.16 L16,0 L20.82,0 L20.82,29.8 L16,29.8 L16,26.29 C14.5643038,28.7035267 11.9682342,30.1875372 9.16,30.2 C3.94,30.2 0,26.49 0,19.72 Z M16.17,19.48 L16.17,19.17 C16.17,14.59 14.06,12.32 10.55,12.32 C7.04,12.32 4.94,14.78 4.94,19.32 L4.94,19.64 C4.94,24.22 7.25,26.41 10.35,26.41 C13.7,26.37 16.17,24.14 16.17,19.48 Z" id="Shape"></path>
            <path d="M27.16,2.8 C27.2496415,1.28336091 28.5057141,0.0993369422 30.025,0.0993369422 C31.5442859,0.0993369422 32.8003585,1.28336091 32.89,2.8 C32.8003585,4.31663909 31.5442859,5.50066306 30.025,5.50066306 C28.5057141,5.50066306 27.2496415,4.31663909 27.16,2.8 Z M27.68,9 L32.49,9 L32.49,29.8 L27.68,29.8 L27.68,9 Z" id="Shape"></path>
            <path d="M39.34,9 L44.16,9 L44.16,12.19 C45.4225954,9.88896026 47.8663219,8.48758154 50.49,8.56 C53.0685805,8.37157712 55.4659346,9.89531914 56.39,12.31 C57.9247221,9.94105676 60.5675798,8.52524013 63.39,8.56 C67.21,8.56 70.31,10.91 70.31,16.65 L70.31,29.8 L65.55,29.8 L65.55,16.94 C65.55,13.87 64.23,12.55 61.84,12.55 C60.5769643,12.5063819 59.3551912,13.0030664 58.4808521,13.9155863 C57.6065129,14.8281062 57.1624705,16.0699803 57.26,17.33 L57.26,29.8 L52.45,29.8 L52.45,16.94 C52.45,13.87 51.09,12.55 48.74,12.55 C47.4769643,12.5063819 46.2551912,13.0030664 45.3808521,13.9155863 C44.5065129,14.8281062 44.0624705,16.0699803 44.16,17.33 L44.16,29.8 L39.34,29.8 L39.34,9 Z" id="Shape"></path>
            <path d="M90.36,23.31 L94.9,23.31 C95.14,25.42 96.21,26.65 99.04,26.65 C101.63,26.65 102.78,25.74 102.78,23.98 C102.78,22.22 101.39,21.63 98.32,21.12 C92.83,20.24 90.79,18.69 90.79,14.78 C90.79,10.6 94.7,8.53 98.6,8.53 C102.86,8.53 106.25,10.13 106.76,14.82 L102.3,14.82 C101.9,12.91 100.83,12.04 98.6,12.04 C96.53,12.04 95.29,13.04 95.29,14.51 C95.29,15.98 96.29,16.62 99.59,17.17 C104.49,17.93 107.4,19.17 107.4,23.55 C107.4,27.77 104.4,30.2 99.08,30.2 C93.76,30.2 90.56,27.73 90.36,23.31 Z" id="Shape"></path>
            <path d="M112.63,22.31 L112.63,9 L117.45,9 L117.45,21.75 C117.45,24.9 118.77,26.33 121.56,26.33 C122.891655,26.3944806 124.186704,25.8830376 125.114966,24.9260668 C126.043227,23.969096 126.514999,22.6590741 126.41,21.33 L126.41,9 L131.23,9 L131.23,29.8 L126.41,29.8 L126.41,26.53 C125.113574,28.9403335 122.531325,30.3740485 119.8,30.2 C115.7,30.2 112.63,27.85 112.63,22.31 Z" id="Shape"></path>
            <path d="M137.7,9 L142.52,9 L142.52,12.19 C143.782595,9.88896026 146.226322,8.48758154 148.85,8.56 C151.42858,8.37157712 153.825935,9.89531914 154.75,12.31 C156.294208,9.92584056 158.959915,8.50791086 161.8,8.56 C165.62,8.56 168.72,10.91 168.72,16.65 L168.72,29.8 L163.91,29.8 L163.91,16.94 C163.91,13.87 162.59,12.55 160.2,12.55 C158.936964,12.5063819 157.715191,13.0030664 156.840852,13.9155863 C155.966513,14.8281062 155.52247,16.0699803 155.62,17.33 L155.62,29.8 L150.81,29.8 L150.81,16.94 C150.81,13.87 149.45,12.55 147.1,12.55 C145.836964,12.5063819 144.615191,13.0030664 143.740852,13.9155863 C142.866513,14.8281062 142.42247,16.0699803 142.52,17.33 L142.52,29.8 L137.7,29.8 L137.7,9 Z" id="Shape"></path>
        </g>
    </g>
</svg>