<?xml version="1.0" encoding="UTF-8"?>
<svg width="227px" height="56px" viewBox="0 0 227 56" version="1.1" xmlns="http://www.w3.org/2000/svg" xmlns:xlink="http://www.w3.org/1999/xlink">
    <!-- Generator: Sketch 51.2 (57519) - http://www.bohemiancoding.com/sketch -->
    <title>hello@dim-sum.co +31</title>
    <desc>Created with Sketch.</desc>
    <defs></defs>
    <g id="Page-1" stroke="none" stroke-width="1" fill="none" fill-rule="evenodd">
        <g id="text-contact-white" fill="#FFFFFF">
            <path d="M7.937,6.094 C9.44900756,6.094 10.5919961,6.51699577 11.366,7.363 C12.1400039,8.20900423 12.527,9.45099181 12.527,11.089 L12.527,19 L9.584,19 L9.584,12.439 C9.584,11.0709932 9.37700207,10.090003 8.963,9.496 C8.54899793,8.90199703 7.83800504,8.605 6.83,8.605 C5.87599523,8.605 5.13800261,8.90649699 4.616,9.5095 C4.09399739,10.112503 3.833,10.9719944 3.833,12.088 L3.833,19 L0.89,19 L0.89,0.1 L3.833,0.1 L3.833,8.173 C4.22900198,7.50699667 4.77799649,6.9940018 5.48,6.634 C6.18200351,6.2739982 7.00099532,6.094 7.937,6.094 Z M27.566,12.061 C27.566,12.3850016 27.5390003,12.9249962 27.485,13.681 L18.143,13.681 C18.1790002,14.6710049 18.5029969,15.4314973 19.115,15.9625 C19.7270031,16.4935027 20.5729946,16.759 21.653,16.759 C22.3730036,16.759 22.9579977,16.6420012 23.408,16.408 C23.8580022,16.1739988 24.2089987,15.8140024 24.461,15.328 L27.431,15.328 C27.232999,16.4980058 26.5985054,17.4564963 25.5275,18.2035 C24.4564946,18.9505037 23.1650076,19.324 21.653,19.324 C19.6729901,19.324 18.1070058,18.7300059 16.955,17.542 C15.8029942,16.3539941 15.227,14.7430102 15.227,12.709 C15.227,11.3769933 15.4879974,10.211505 16.01,9.2125 C16.5320026,8.213495 17.2699952,7.4440027 18.224,6.904 C19.1780048,6.3639973 20.2849937,6.094 21.545,6.094 C22.7330059,6.094 23.7814955,6.34599748 24.6905,6.85 C25.5995045,7.35400252 26.3059975,8.0559955 26.81,8.956 C27.3140025,9.8560045 27.566,10.8909941 27.566,12.061 Z M24.677,11.44 C24.6589999,10.4679951 24.3755027,9.72100261 23.8265,9.199 C23.2774973,8.67699739 22.499005,8.416 21.491,8.416 C20.4649949,8.416 19.655003,8.69499721 19.061,9.253 C18.466997,9.81100279 18.1610001,10.5399955 18.143,11.44 L24.677,11.44 Z M30.401,0.1 L33.344,0.1 L33.344,19 L30.401,19 L30.401,0.1 Z M37.124,0.1 L40.067,0.1 L40.067,19 L37.124,19 L37.124,0.1 Z M49.544,19.324 C48.1939932,19.324 47.015005,19.0360029 46.007,18.46 C44.998995,17.8839971 44.2295027,17.092005 43.6985,16.084 C43.1674973,15.075995 42.902,13.9510062 42.902,12.709 C42.902,11.4669938 43.1674973,10.342005 43.6985,9.334 C44.2295027,8.32599496 44.998995,7.53400288 46.007,6.958 C47.015005,6.38199712 48.1939932,6.094 49.544,6.094 C50.8940068,6.094 52.072995,6.38199712 53.081,6.958 C54.089005,7.53400288 54.8584973,8.32599496 55.3895,9.334 C55.9205027,10.342005 56.186,11.4669938 56.186,12.709 C56.186,13.9510062 55.9205027,15.075995 55.3895,16.084 C54.8584973,17.092005 54.089005,17.8839971 53.081,18.46 C52.072995,19.0360029 50.8940068,19.324 49.544,19.324 Z M49.544,16.705 C50.6960058,16.705 51.6004967,16.3360037 52.2575,15.598 C52.9145033,14.8599963 53.243,13.8970059 53.243,12.709 C53.243,11.5209941 52.9145033,10.5580037 52.2575,9.82 C51.6004967,9.08199631 50.6960058,8.713 49.544,8.713 C48.3919942,8.713 47.4875033,9.08199631 46.8305,9.82 C46.1734967,10.5580037 45.845,11.5209941 45.845,12.709 C45.845,13.8970059 46.1734967,14.8599963 46.8305,15.598 C47.4875033,16.3360037 48.3919942,16.705 49.544,16.705 Z M69.47,24.211 C67.0579879,24.211 64.9925086,23.7250049 63.2735,22.753 C61.5544914,21.7809951 60.2585044,20.4490085 59.3855,18.757 C58.5124956,17.0649915 58.076,15.1660105 58.076,13.06 C58.076,10.8459889 58.5349954,8.92000819 59.453,7.282 C60.3710046,5.64399181 61.6669916,4.37950446 63.341,3.4885 C65.0150084,2.59749555 66.9589889,2.152 69.173,2.152 C71.3510109,2.152 73.2544919,2.552496 74.8835,3.3535 C76.5125081,4.154504 77.7814955,5.3649919 78.6905,6.985 C79.5995045,8.6050081 80.054,10.611988 80.054,13.006 C80.054,15.2740113 79.653504,16.9794943 78.8525,18.1225 C78.051496,19.2655057 76.8950076,19.837 75.383,19.837 C73.2949896,19.837 72.0080024,18.8920094 71.522,17.002 C71.1979984,17.5240026 70.739003,17.9379985 70.145,18.244 C69.550997,18.5500015 68.8490041,18.703 68.039,18.703 C67.030995,18.703 66.131004,18.4510025 65.339,17.947 C64.546996,17.4429975 63.9305022,16.7725042 63.4895,15.9355 C63.0484978,15.0984958 62.828,14.185005 62.828,13.195 C62.828,12.186995 63.0529977,11.2555043 63.503,10.4005 C63.9530022,9.54549573 64.578496,8.86600252 65.3795,8.362 C66.180504,7.85799748 67.084995,7.606 68.093,7.606 C68.8490038,7.606 69.523997,7.74999856 70.118,8.038 C70.712003,8.32600144 71.1799983,8.74899721 71.522,9.307 L71.522,7.876 L73.979,7.876 L73.979,15.193 C73.979,16.1110046 74.0959988,16.7904978 74.33,17.2315 C74.5640012,17.6725022 74.9509973,17.893 75.491,17.893 C76.1030031,17.893 76.6294978,17.5690032 77.0705,16.921 C77.5115022,16.2729968 77.732,15.0580089 77.732,13.276 C77.732,7.22796976 74.8700286,4.204 69.146,4.204 C67.3639911,4.204 65.8160066,4.56849636 64.502,5.2975 C63.1879934,6.02650364 62.1755036,7.06149329 61.4645,8.4025 C60.7534964,9.74350671 60.398,11.313991 60.398,13.114 C60.398,14.8600087 60.7444965,16.4124932 61.4375,17.7715 C62.1305035,19.1305068 63.1609932,20.1924962 64.529,20.9575 C65.8970068,21.7225038 67.5619902,22.105 69.524,22.105 C70.3520041,22.105 71.1529961,22.0240008 71.927,21.862 C72.7010039,21.6999992 73.5109958,21.4120021 74.357,20.998 L75.248,22.942 C74.2579951,23.4100023 73.2995046,23.7384991 72.3725,23.9275 C71.4454954,24.1165009 70.478005,24.211 69.47,24.211 Z M68.39,16.489 C69.3080046,16.489 70.0594971,16.1695032 70.6445,15.5305 C71.2295029,14.8914968 71.522,14.1040047 71.522,13.168 C71.522,12.2319953 71.2295029,11.4400032 70.6445,10.792 C70.0594971,10.1439968 69.3080046,9.82 68.39,9.82 C67.4719954,9.82 66.7295028,10.1439968 66.1625,10.792 C65.5954972,11.4400032 65.312,12.2319953 65.312,13.168 C65.312,14.1040047 65.5954972,14.8914968 66.1625,15.5305 C66.7295028,16.1695032 67.4719954,16.489 68.39,16.489 Z M95.093,0.1 L95.093,19 L92.15,19 L92.15,17.299 C91.7899982,17.9110031 91.2275038,18.4014982 90.4625,18.7705 C89.6974962,19.1395018 88.919004,19.324 88.127,19.324 C86.8129934,19.324 85.6925046,19.0360029 84.7655,18.46 C83.8384954,17.8839971 83.1365024,17.096505 82.6595,16.0975 C82.1824976,15.098495 81.944,13.9690063 81.944,12.709 C81.944,11.4669938 82.1959975,10.346505 82.7,9.3475 C83.2040025,8.34849501 83.9284953,7.55650293 84.8735,6.9715 C85.8185047,6.38649708 86.9299936,6.094 88.208,6.094 C89.0540042,6.094 89.8279965,6.2739982 90.53,6.634 C91.2320035,6.9940018 91.7719981,7.48899685 92.15,8.119 L92.15,0.1 L95.093,0.1 Z M88.559,16.705 C89.765006,16.705 90.6874968,16.3270038 91.3265,15.571 C91.9655032,14.8149962 92.285,13.8610058 92.285,12.709 C92.285,11.5569942 91.9655032,10.6030038 91.3265,9.847 C90.6874968,9.09099622 89.765006,8.713 88.559,8.713 C87.4249943,8.713 86.5295033,9.08649627 85.8725,9.8335 C85.2154967,10.5805037 84.887,11.5389942 84.887,12.709 C84.887,13.8790058 85.2154967,14.8374963 85.8725,15.5845 C86.5295033,16.3315037 87.4249943,16.705 88.559,16.705 Z M98.873,6.418 L101.816,6.418 L101.816,19 L98.873,19 L98.873,6.418 Z M100.358,4.609 C99.7279968,4.609 99.2060021,4.39750212 98.792,3.9745 C98.3779979,3.55149789 98.171,3.03400306 98.171,2.422 C98.171,1.80999694 98.3779979,1.29250212 98.792,0.8695 C99.2060021,0.446497885 99.7279968,0.235 100.358,0.235 C100.988003,0.235 101.509998,0.446497885 101.924,0.8695 C102.338002,1.29250212 102.545,1.80999694 102.545,2.422 C102.545,3.03400306 102.338002,3.55149789 101.924,3.9745 C101.509998,4.39750212 100.988003,4.609 100.358,4.609 Z M105.596,6.418 L108.539,6.418 L108.539,8.173 C108.827001,7.56099694 109.285997,7.06150194 109.916,6.6745 C110.546003,6.28749807 111.256996,6.094 112.049,6.094 C114.04701,6.094 115.369997,6.84099253 116.018,8.335 C116.324002,7.68699676 116.827996,7.15150211 117.53,6.7285 C118.232004,6.30549789 119.014996,6.094 119.879,6.094 C122.903015,6.094 124.415,7.74098353 124.415,11.035 L124.415,19 L121.472,19 L121.472,11.602 C121.472,10.5759949 121.274002,9.82000243 120.878,9.334 C120.481998,8.84799757 119.897004,8.605 119.123,8.605 C118.294996,8.605 117.647002,8.87949726 117.179,9.4285 C116.710998,9.97750275 116.477,10.9449931 116.477,12.331 L116.477,19 L113.534,19 L113.534,11.575 C113.534,10.5489949 113.345002,9.79750239 112.967,9.3205 C112.588998,8.84349762 112.013004,8.605 111.239,8.605 C110.392996,8.605 109.731502,8.87949726 109.2545,9.4285 C108.777498,9.97750275 108.539,10.9449931 108.539,12.331 L108.539,19 L105.596,19 L105.596,6.418 Z M127.52,10.549 L135.863,10.549 L135.863,13.168 L127.52,13.168 L127.52,10.549 Z M143.504,19.324 C142.459995,19.324 141.528504,19.1350019 140.7095,18.757 C139.890496,18.3789981 139.260502,17.8750031 138.8195,17.245 C138.378498,16.6149968 138.158,15.9130039 138.158,15.139 L141.101,15.139 C141.101,15.6790027 141.339498,16.1199983 141.8165,16.462 C142.293502,16.8040017 142.909996,16.975 143.666,16.975 C144.224003,16.975 144.664998,16.8400014 144.989,16.57 C145.313002,16.2999986 145.475,15.9400022 145.475,15.49 C145.475,14.7699964 145.160003,14.3290008 144.53,14.167 L141.29,13.276 C140.389995,13.0239987 139.710502,12.596503 139.2515,11.9935 C138.792498,11.390497 138.563,10.6570043 138.563,9.793 C138.563,9.10899658 138.765498,8.48350283 139.1705,7.9165 C139.575502,7.34949717 140.142496,6.90400162 140.8715,6.58 C141.600504,6.25599838 142.441995,6.094 143.396,6.094 C144.998008,6.094 146.226496,6.4539964 147.0815,7.174 C147.936504,7.8940036 148.364,8.83899415 148.364,10.009 L145.475,10.009 C145.475,9.48699739 145.281502,9.07750148 144.8945,8.7805 C144.507498,8.48349852 143.972003,8.335 143.288,8.335 C142.765997,8.335 142.334002,8.45649879 141.992,8.6995 C141.649998,8.94250122 141.479,9.25299811 141.479,9.631 C141.479,9.97300171 141.573499,10.2609988 141.7625,10.495 C141.951501,10.7290012 142.216998,10.8909996 142.559,10.981 L145.556,11.845 C146.420004,12.0970013 147.121997,12.524497 147.662,13.1275 C148.202003,13.730503 148.472,14.427996 148.472,15.22 C148.472,16.4440061 148.035504,17.4339962 147.1625,18.19 C146.289496,18.9460038 145.070008,19.324 143.504,19.324 Z M155.978,19.324 C154.555993,19.324 153.422004,18.9010042 152.576,18.055 C151.729996,17.2089958 151.307,15.9670082 151.307,14.329 L151.307,6.418 L154.25,6.418 L154.25,13.6 C154.25,14.6620053 154.447998,15.4629973 154.844,16.003 C155.240002,16.5430027 155.896995,16.813 156.815,16.813 C157.877005,16.813 158.650998,16.511503 159.137,15.9085 C159.623002,15.305497 159.866,14.5090049 159.866,13.519 L159.866,6.418 L162.809,6.418 L162.809,19 L159.866,19 L159.866,17.245 C159.091996,18.6310069 157.796009,19.324 155.978,19.324 Z M166.589,6.418 L169.532,6.418 L169.532,8.173 C169.820001,7.56099694 170.278997,7.06150194 170.909,6.6745 C171.539003,6.28749807 172.249996,6.094 173.042,6.094 C175.04001,6.094 176.362997,6.84099253 177.011,8.335 C177.317002,7.68699676 177.820996,7.15150211 178.523,6.7285 C179.225004,6.30549789 180.007996,6.094 180.872,6.094 C183.896015,6.094 185.408,7.74098353 185.408,11.035 L185.408,19 L182.465,19 L182.465,11.602 C182.465,10.5759949 182.267002,9.82000243 181.871,9.334 C181.474998,8.84799757 180.890004,8.605 180.116,8.605 C179.287996,8.605 178.640002,8.87949726 178.172,9.4285 C177.703998,9.97750275 177.47,10.9449931 177.47,12.331 L177.47,19 L174.527,19 L174.527,11.575 C174.527,10.5489949 174.338002,9.79750239 173.96,9.3205 C173.581998,8.84349762 173.006004,8.605 172.232,8.605 C171.385996,8.605 170.724502,8.87949726 170.2475,9.4285 C169.770498,9.97750275 169.532,10.9449931 169.532,12.331 L169.532,19 L166.589,19 L166.589,6.418 Z M191.051,19.216 C190.420997,19.216 189.885502,18.9910023 189.4445,18.541 C189.003498,18.0909977 188.783,17.5510031 188.783,16.921 C188.783,16.2909968 189.003498,15.7555022 189.4445,15.3145 C189.885502,14.8734978 190.420997,14.653 191.051,14.653 C191.681003,14.653 192.220998,14.8734978 192.671,15.3145 C193.121002,15.7555022 193.346,16.2909968 193.346,16.921 C193.346,17.5510031 193.121002,18.0909977 192.671,18.541 C192.220998,18.9910023 191.681003,19.216 191.051,19.216 Z M201.635,19.324 C200.356994,19.324 199.245505,19.0450028 198.3005,18.487 C197.355495,17.9289972 196.631003,17.150505 196.127,16.1515 C195.622997,15.152495 195.371,14.0050065 195.371,12.709 C195.371,11.4129935 195.622997,10.265505 196.127,9.2665 C196.631003,8.26749501 197.355495,7.48900279 198.3005,6.931 C199.245505,6.37299721 200.356994,6.094 201.635,6.094 C203.363009,6.094 204.753495,6.53049564 205.8065,7.4035 C206.859505,8.27650437 207.457999,9.44199271 207.602,10.9 L204.659,10.9 C204.496999,10.1619963 204.173002,9.6130018 203.687,9.253 C203.200998,8.8929982 202.517004,8.713 201.635,8.713 C200.590995,8.713 199.776503,9.05949654 199.1915,9.7525 C198.606497,10.4455035 198.314,11.4309936 198.314,12.709 C198.314,13.9870064 198.606497,14.9724965 199.1915,15.6655 C199.776503,16.3585035 200.590995,16.705 201.635,16.705 C203.309008,16.705 204.316998,16.0210068 204.659,14.653 L207.602,14.653 C207.457999,16.0750071 206.859505,17.2089958 205.8065,18.055 C204.753495,18.9010042 203.363009,19.324 201.635,19.324 Z M216.404,19.324 C215.053993,19.324 213.875005,19.0360029 212.867,18.46 C211.858995,17.8839971 211.089503,17.092005 210.5585,16.084 C210.027497,15.075995 209.762,13.9510062 209.762,12.709 C209.762,11.4669938 210.027497,10.342005 210.5585,9.334 C211.089503,8.32599496 211.858995,7.53400288 212.867,6.958 C213.875005,6.38199712 215.053993,6.094 216.404,6.094 C217.754007,6.094 218.932995,6.38199712 219.941,6.958 C220.949005,7.53400288 221.718497,8.32599496 222.2495,9.334 C222.780503,10.342005 223.046,11.4669938 223.046,12.709 C223.046,13.9510062 222.780503,15.075995 222.2495,16.084 C221.718497,17.092005 220.949005,17.8839971 219.941,18.46 C218.932995,19.0360029 217.754007,19.324 216.404,19.324 Z M216.404,16.705 C217.556006,16.705 218.460497,16.3360037 219.1175,15.598 C219.774503,14.8599963 220.103,13.8970059 220.103,12.709 C220.103,11.5209941 219.774503,10.5580037 219.1175,9.82 C218.460497,9.08199631 217.556006,8.713 216.404,8.713 C215.251994,8.713 214.347503,9.08199631 213.6905,9.82 C213.033497,10.5580037 212.705,11.5209941 212.705,12.709 C212.705,13.8970059 213.033497,14.8599963 213.6905,15.598 C214.347503,16.3360037 215.251994,16.705 216.404,16.705 Z M4.4,42.818 L0.35,42.818 L0.35,40.199 L4.4,40.199 L4.4,36.041 L7.208,36.041 L7.208,40.199 L11.258,40.199 L11.258,42.818 L7.208,42.818 L7.208,46.949 L4.4,46.949 L4.4,42.818 Z M20.357,50.324 C18.2149893,50.324 16.545506,49.7570057 15.3485,48.623 C14.151494,47.4889943 13.553,45.9050102 13.553,43.871 L16.712,43.871 C16.712,45.0950061 17.0269968,46.0399967 17.657,46.706 C18.2870031,47.3720033 19.1869941,47.705 20.357,47.705 C21.3110048,47.705 22.084997,47.4350027 22.679,46.895 C23.273003,46.3549973 23.57,45.6440044 23.57,44.762 C23.57,42.7459899 22.4180115,41.738 20.114,41.738 L18.818,41.738 L18.818,39.065 L20.141,39.065 C22.1030098,39.065 23.084,38.165009 23.084,36.365 C23.084,35.6269963 22.8185027,35.0285023 22.2875,34.5695 C21.7564973,34.1104977 21.0770041,33.881 20.249,33.881 C19.258995,33.881 18.4805028,34.1644972 17.9135,34.7315 C17.3464972,35.2985028 17.063,36.0769951 17.063,37.067 L14.012,37.067 C14.012,35.3029912 14.5744944,33.9035052 15.6995,32.8685 C16.8245056,31.8334948 18.3409905,31.316 20.249,31.316 C21.4370059,31.316 22.4854955,31.5274979 23.3945,31.9505 C24.3035045,32.3735021 25.0054975,32.9674962 25.5005,33.7325 C25.9955025,34.4975038 26.243,35.3749951 26.243,36.365 C26.243,37.3370049 25.9775027,38.1604966 25.4465,38.8355 C24.9154973,39.5105034 24.146005,40.0099984 23.138,40.334 C24.2180054,40.532001 25.0819968,41.026996 25.73,41.819 C26.3780032,42.611004 26.702,43.5829942 26.702,44.735 C26.702,45.8150054 26.4320027,46.7779958 25.892,47.624 C25.3519973,48.4700042 24.6005048,49.1314976 23.6375,49.6085 C22.6744952,50.0855024 21.5810061,50.324 20.357,50.324 Z M32.615,37.364 L28.727,37.364 L28.727,34.772 C29.8610057,34.772 30.724997,34.668501 31.319,34.4615 C31.913003,34.254499 32.3224989,33.9305022 32.5475,33.4895 C32.7725011,33.0484978 32.885,32.432004 32.885,31.64 L35.693,31.64 L35.693,50 L32.615,50 L32.615,37.364 Z M52.649,55.265 C50.7949907,53.662992 49.3280054,51.8360103 48.248,49.784 C47.1679946,47.7319897 46.628,45.3470136 46.628,42.629 C46.628,39.9109864 47.1679946,37.5260103 48.248,35.474 C49.3280054,33.4219897 50.7949907,31.595008 52.649,29.993 L54.458,31.64 C52.8379919,33.2600081 51.6185041,34.9429913 50.7995,36.689 C49.9804959,38.4350087 49.571,40.4149889 49.571,42.629 C49.571,44.8430111 49.9804959,46.8229913 50.7995,48.569 C51.6185041,50.3150087 52.8379919,51.9979919 54.458,53.618 L52.649,55.265 Z M61.505,50.324 C59.2009885,50.324 57.450506,49.5185081 56.2535,47.9075 C55.056494,46.2964919 54.458,43.9340156 54.458,40.82 C54.458,37.7059844 55.056494,35.3435081 56.2535,33.7325 C57.450506,32.1214919 59.2009885,31.316 61.505,31.316 C63.8090115,31.316 65.559494,32.1214919 66.7565,33.7325 C67.953506,35.3435081 68.552,37.7059844 68.552,40.82 C68.552,43.9340156 67.953506,46.2964919 66.7565,47.9075 C65.559494,49.5185081 63.8090115,50.324 61.505,50.324 Z M61.505,47.624 C62.8730068,47.624 63.8989966,47.0615056 64.583,45.9365 C65.2670034,44.8114944 65.609,43.1060114 65.609,40.82 C65.609,38.5339886 65.2670034,36.8285056 64.583,35.7035 C63.8989966,34.5784944 62.8730068,34.016 61.505,34.016 C60.1369932,34.016 59.1110034,34.5784944 58.427,35.7035 C57.7429966,36.8285056 57.401,38.5339886 57.401,40.82 C57.401,43.1060114 57.7429966,44.8114944 58.427,45.9365 C59.1110034,47.0615056 60.1369932,47.624 61.505,47.624 Z M68.552,53.618 C70.1720081,51.9979919 71.3914959,50.3150087 72.2105,48.569 C73.0295041,46.8229913 73.439,44.8430111 73.439,42.629 C73.439,40.4149889 73.0295041,38.4350087 72.2105,36.689 C71.3914959,34.9429913 70.1720081,33.2600081 68.552,31.64 L70.361,29.993 C72.2150093,31.595008 73.6819946,33.4219897 74.762,35.474 C75.8420054,37.5260103 76.382,39.9109864 76.382,42.629 C76.382,45.3470136 75.8420054,47.7319897 74.762,49.784 C73.6819946,51.8360103 72.2150093,53.662992 70.361,55.265 L68.552,53.618 Z M79.082,50 C79.082,47.9659898 79.4419964,46.2965065 80.162,44.9915 C80.8820036,43.6864935 82.0339921,42.5930044 83.618,41.711 L86.318,40.226 C87.8480077,39.3799958 88.613,38.2190074 88.613,36.743 C88.613,35.9329959 88.3610025,35.2760025 87.857,34.772 C87.3529975,34.2679975 86.705004,34.016 85.913,34.016 C84.8869949,34.016 84.0950028,34.3489967 83.537,35.015 C82.9789972,35.6810033 82.7,36.6349938 82.7,37.877 L79.487,37.877 C79.487,36.5629934 79.7479974,35.4110049 80.27,34.421 C80.7920026,33.430995 81.5389951,32.6660027 82.511,32.126 C83.4830049,31.5859973 84.6169935,31.316 85.913,31.316 C87.7670093,31.316 89.2294946,31.7884953 90.3005,32.7335 C91.3715054,33.6785047 91.907,34.9609919 91.907,36.581 C91.907,37.6970056 91.5920032,38.7499951 90.962,39.74 C90.3319969,40.730005 89.4500057,41.5489968 88.316,42.197 L85.67,43.709 C84.661995,44.2850029 83.9645019,44.8069977 83.5775,45.275 C83.1904981,45.7430023 82.9160008,46.3909959 82.754,47.219 L91.853,47.219 L91.853,50 L79.082,50 Z M101.114,50.324 C98.8099885,50.324 97.059506,49.5185081 95.8625,47.9075 C94.665494,46.2964919 94.067,43.9340156 94.067,40.82 C94.067,37.7059844 94.665494,35.3435081 95.8625,33.7325 C97.059506,32.1214919 98.8099885,31.316 101.114,31.316 C103.418012,31.316 105.168494,32.1214919 106.3655,33.7325 C107.562506,35.3435081 108.161,37.7059844 108.161,40.82 C108.161,43.9340156 107.562506,46.2964919 106.3655,47.9075 C105.168494,49.5185081 103.418012,50.324 101.114,50.324 Z M101.114,47.624 C102.482007,47.624 103.507997,47.0615056 104.192,45.9365 C104.876003,44.8114944 105.218,43.1060114 105.218,40.82 C105.218,38.5339886 104.876003,36.8285056 104.192,35.7035 C103.507997,34.5784944 102.482007,34.016 101.114,34.016 C99.7459932,34.016 98.7200034,34.5784944 98.036,35.7035 C97.3519966,36.8285056 97.01,38.5339886 97.01,40.82 C97.01,43.1060114 97.3519966,44.8114944 98.036,45.9365 C98.7200034,47.0615056 99.7459932,47.624 101.114,47.624 Z M117.476,50 C117.476,47.9659898 117.835996,46.2965065 118.556,44.9915 C119.276004,43.6864935 120.427992,42.5930044 122.012,41.711 L124.712,40.226 C126.242008,39.3799958 127.007,38.2190074 127.007,36.743 C127.007,35.9329959 126.755003,35.2760025 126.251,34.772 C125.746997,34.2679975 125.099004,34.016 124.307,34.016 C123.280995,34.016 122.489003,34.3489967 121.931,35.015 C121.372997,35.6810033 121.094,36.6349938 121.094,37.877 L117.881,37.877 C117.881,36.5629934 118.141997,35.4110049 118.664,34.421 C119.186003,33.430995 119.932995,32.6660027 120.905,32.126 C121.877005,31.5859973 123.010994,31.316 124.307,31.316 C126.161009,31.316 127.623495,31.7884953 128.6945,32.7335 C129.765505,33.6785047 130.301,34.9609919 130.301,36.581 C130.301,37.6970056 129.986003,38.7499951 129.356,39.74 C128.725997,40.730005 127.844006,41.5489968 126.71,42.197 L124.064,43.709 C123.055995,44.2850029 122.358502,44.8069977 121.9715,45.275 C121.584498,45.7430023 121.310001,46.3909959 121.148,47.219 L130.247,47.219 L130.247,50 L117.476,50 Z M136.619,37.364 L132.731,37.364 L132.731,34.772 C133.865006,34.772 134.728997,34.668501 135.323,34.4615 C135.917003,34.254499 136.326499,33.9305022 136.5515,33.4895 C136.776501,33.0484978 136.889,32.432004 136.889,31.64 L139.697,31.64 L139.697,50 L136.619,50 L136.619,37.364 Z M157.544,50.324 C155.239988,50.324 153.489506,49.5185081 152.2925,47.9075 C151.095494,46.2964919 150.497,43.9340156 150.497,40.82 C150.497,37.7059844 151.095494,35.3435081 152.2925,33.7325 C153.489506,32.1214919 155.239988,31.316 157.544,31.316 C159.848012,31.316 161.598494,32.1214919 162.7955,33.7325 C163.992506,35.3435081 164.591,37.7059844 164.591,40.82 C164.591,43.9340156 163.992506,46.2964919 162.7955,47.9075 C161.598494,49.5185081 159.848012,50.324 157.544,50.324 Z M157.544,47.624 C158.912007,47.624 159.937997,47.0615056 160.622,45.9365 C161.306003,44.8114944 161.648,43.1060114 161.648,40.82 C161.648,38.5339886 161.306003,36.8285056 160.622,35.7035 C159.937997,34.5784944 158.912007,34.016 157.544,34.016 C156.175993,34.016 155.150003,34.5784944 154.466,35.7035 C153.781997,36.8285056 153.44,38.5339886 153.44,40.82 C153.44,43.1060114 153.781997,44.8114944 154.466,45.9365 C155.150003,47.0615056 156.175993,47.624 157.544,47.624 Z M170.639,37.364 L166.751,37.364 L166.751,34.772 C167.885006,34.772 168.748997,34.668501 169.343,34.4615 C169.937003,34.254499 170.346499,33.9305022 170.5715,33.4895 C170.796501,33.0484978 170.909,32.432004 170.909,31.64 L173.717,31.64 L173.717,50 L170.639,50 L170.639,37.364 Z M192.887,34.475 L184.517,34.475 L184.517,31.64 L197.531,31.64 L188.27,50 L184.841,50 L192.887,34.475 Z M211.22,37.931 C211.22,39.5870083 210.761005,41.0089941 209.843,42.197 L204.065,50 L200.366,50 L204.632,44.546 L204.578,44.546 C203.227993,44.546 202.049005,44.2580029 201.041,43.682 C200.032995,43.1059971 199.263503,42.314005 198.7325,41.306 C198.201497,40.297995 197.936,39.1730062 197.936,37.931 C197.936,36.6889938 198.201497,35.564005 198.7325,34.556 C199.263503,33.547995 200.032995,32.7560029 201.041,32.18 C202.049005,31.6039971 203.227993,31.316 204.578,31.316 C205.928007,31.316 207.106995,31.6039971 208.115,32.18 C209.123005,32.7560029 209.892497,33.547995 210.4235,34.556 C210.954503,35.564005 211.22,36.6889938 211.22,37.931 Z M200.879,37.931 C200.879,39.1190059 201.207497,40.0819963 201.8645,40.82 C202.521503,41.5580037 203.425994,41.927 204.578,41.927 C205.730006,41.927 206.634497,41.5580037 207.2915,40.82 C207.948503,40.0819963 208.277,39.1190059 208.277,37.931 C208.277,36.7429941 207.948503,35.7800037 207.2915,35.042 C206.634497,34.3039963 205.730006,33.935 204.578,33.935 C203.425994,33.935 202.521503,34.3039963 201.8645,35.042 C201.207497,35.7800037 200.879,36.7429941 200.879,37.931 Z M219.725,50.324 C218.392993,50.324 217.227505,50.0990023 216.2285,49.649 C215.229495,49.1989977 214.460003,48.5645041 213.92,47.7455 C213.379997,46.9264959 213.11,45.9680055 213.11,44.87 C213.11,43.7899946 213.357498,42.8675038 213.8525,42.1025 C214.347502,41.3374962 215.053995,40.7930016 215.972,40.469 C215.179996,40.1449984 214.550002,39.6005038 214.082,38.8355 C213.613998,38.0704962 213.38,37.2020049 213.38,36.23 C213.38,35.2759952 213.645497,34.4255037 214.1765,33.6785 C214.707503,32.9314963 215.454495,32.3510021 216.4175,31.937 C217.380505,31.5229979 218.482994,31.316 219.725,31.316 C220.967006,31.316 222.069495,31.5229979 223.0325,31.937 C223.995505,32.3510021 224.742497,32.9314963 225.2735,33.6785 C225.804503,34.4255037 226.07,35.2759952 226.07,36.23 C226.07,37.1840048 225.827002,38.0479961 225.341,38.822 C224.854998,39.5960039 224.216004,40.1449984 223.424,40.469 C224.342005,40.7930016 225.057497,41.3374962 225.5705,42.1025 C226.083503,42.8675038 226.34,43.7899946 226.34,44.87 C226.34,45.9680055 226.070003,46.9264959 225.53,47.7455 C224.989997,48.5645041 224.220505,49.1989977 223.2215,49.649 C222.222495,50.0990023 221.057007,50.324 219.725,50.324 Z M219.725,39.227 C220.697005,39.227 221.466497,38.9795025 222.0335,38.4845 C222.600503,37.9894975 222.884,37.337004 222.884,36.527 C222.884,35.6809958 222.600503,35.0150024 222.0335,34.529 C221.466497,34.0429976 220.697005,33.8 219.725,33.8 C218.752995,33.8 217.983503,34.0429976 217.4165,34.529 C216.849497,35.0150024 216.566,35.6809958 216.566,36.527 C216.566,37.337004 216.862997,37.9894975 217.457,38.4845 C218.051003,38.9795025 218.806995,39.227 219.725,39.227 Z M219.725,47.705 C220.769005,47.705 221.605997,47.4305027 222.236,46.8815 C222.866003,46.3324973 223.181,45.5990046 223.181,44.681 C223.181,43.7629954 222.866003,43.0295027 222.236,42.4805 C221.605997,41.9314973 220.769005,41.657 219.725,41.657 C218.716995,41.657 217.889003,41.9359972 217.241,42.494 C216.592997,43.0520028 216.269,43.7809955 216.269,44.681 C216.269,45.5990046 216.583997,46.3324973 217.214,46.8815 C217.844003,47.4305027 218.680995,47.705 219.725,47.705 Z" id="hello@dim-sum.co-+31"></path>
        </g>
    </g>
</svg>