<?xml version="1.0" encoding="UTF-8"?>
<svg width="227px" height="56px" viewBox="0 0 227 56" version="1.1" xmlns="http://www.w3.org/2000/svg" xmlns:xlink="http://www.w3.org/1999/xlink">
    <!-- Generator: Sketch 64 (93537) - https://sketch.com -->
    <title>text-contact-white</title>
    <desc>Created with Sketch.</desc>
    <g id="Page-1" stroke="none" stroke-width="1" fill="none" fill-rule="evenodd">
        <g id="text-contact-white" fill="#FFFFFF">
            <path d="M7.937,6.094 C9.449,6.094 10.592,6.517 11.366,7.363 C12.14,8.209 12.527,9.451 12.527,11.089 L12.527,19 L9.584,19 L9.584,12.439 C9.584,11.071 9.377,10.09 8.963,9.496 C8.549,8.902 7.838,8.605 6.83,8.605 C5.876,8.605 5.138,8.906 4.616,9.509 C4.094,10.113 3.833,10.972 3.833,12.088 L3.833,19 L0.89,19 L0.89,0.1 L3.833,0.1 L3.833,8.173 C4.22297955,7.51261193 4.79471894,6.97836364 5.48,6.634 C6.182,6.274 7.001,6.094 7.937,6.094 Z M27.566,12.061 C27.566,12.385 27.539,12.925 27.485,13.681 L18.143,13.681 C18.179,14.671 18.503,15.431 19.115,15.963 C19.727,16.493 20.573,16.759 21.653,16.759 C22.373,16.759 22.958,16.642 23.408,16.408 C23.858,16.174 24.209,15.814 24.461,15.328 L27.431,15.328 C27.233,16.498 26.599,17.456 25.527,18.203 C24.457,18.951 23.165,19.324 21.653,19.324 C19.673,19.324 18.107,18.73 16.955,17.542 C15.803,16.354 15.227,14.743 15.227,12.709 C15.227,11.377 15.488,10.212 16.01,9.213 C16.5046521,8.24219773 17.2748239,7.43897886 18.224,6.904 C19.178,6.364 20.285,6.094 21.545,6.094 C22.733,6.094 23.781,6.346 24.69,6.85 C25.5820206,7.33683629 26.3172642,8.06722454 26.81,8.956 C27.314,9.856 27.566,10.891 27.566,12.061 L27.566,12.061 Z M24.677,11.44 C24.659,10.468 24.376,9.721 23.827,9.199 C23.277,8.677 22.499,8.416 21.491,8.416 C20.465,8.416 19.655,8.695 19.061,9.253 C18.467,9.811 18.161,10.54 18.143,11.44 L24.677,11.44 Z M30.401,0.1 L33.344,0.1 L33.344,19 L30.401,19 L30.401,0.1 Z M37.124,0.1 L40.067,0.1 L40.067,19 L37.124,19 L37.124,0.1 Z M49.544,19.324 C48.194,19.324 47.015,19.036 46.007,18.46 C45.0233408,17.9088261 44.2213871,17.0832446 43.699,16.084 C43.167,15.076 42.902,13.951 42.902,12.709 C42.902,11.467 43.167,10.342 43.699,9.334 C44.2213871,8.33475536 45.0233408,7.50917392 46.007,6.958 C47.015,6.382 48.194,6.094 49.544,6.094 C50.894,6.094 52.073,6.382 53.081,6.958 C54.0646592,7.50917392 54.8666129,8.33475536 55.389,9.334 C55.921,10.342 56.186,11.467 56.186,12.709 C56.186,13.951 55.921,15.076 55.389,16.084 C54.8666129,17.0832446 54.0646592,17.9088261 53.081,18.46 C52.073,19.036 50.894,19.324 49.544,19.324 L49.544,19.324 Z M49.544,16.705 C50.696,16.705 51.6,16.336 52.258,15.598 C52.915,14.86 53.243,13.897 53.243,12.709 C53.243,11.521 52.915,10.558 52.257,9.82 C51.6,9.082 50.696,8.713 49.544,8.713 C48.392,8.713 47.488,9.082 46.831,9.82 C46.173,10.558 45.845,11.521 45.845,12.709 C45.845,13.897 46.173,14.86 46.831,15.598 C47.488,16.336 48.392,16.705 49.544,16.705 Z M69.47,24.2111 C67.058,24.2111 64.993,23.725 63.273,22.753 C61.554,21.781 60.259,20.449 59.385,18.757 C58.512,17.065 58.076,15.166 58.076,13.06 C58.076,10.846 58.535,8.92 59.453,7.282 C60.3501211,5.6646051 61.7019117,4.34584434 63.341,3.489 C65.015,2.597 66.959,2.152 69.173,2.152 C71.351,2.152 73.254,2.552 74.883,3.353 C76.513,4.155 77.781,5.365 78.691,6.985 C79.6,8.605 80.054,10.612 80.054,13.006 C80.054,15.274 79.654,16.979 78.853,18.122 C78.051,19.266 76.895,19.837 75.383,19.837 C73.295,19.837 72.008,18.892 71.522,17.002 C71.198,17.524 70.739,17.938 70.145,18.244 C69.551,18.55 68.849,18.703 68.039,18.703 C67.031,18.703 66.131,18.451 65.339,17.947 C64.5552067,17.4522291 63.9167999,16.7582636 63.489,15.936 C63.0461295,15.0907746 62.8190613,14.1491804 62.828,13.195 C62.828,12.187 63.053,11.255 63.503,10.4 C63.9346932,9.5650302 64.5825605,8.861217 65.379,8.362 C66.181,7.858 67.085,7.606 68.093,7.606 C68.849,7.606 69.524,7.75 70.118,8.038 C70.6997911,8.31495235 71.1878397,8.75607321 71.522,9.307 L71.522,7.876 L73.979,7.876 L73.979,15.193 C73.979,16.111 74.096,16.79 74.33,17.232 C74.564,17.672 74.951,17.893 75.491,17.893 C76.103,17.893 76.629,17.569 77.071,16.921 C77.511,16.273 77.732,15.058 77.732,13.276 C77.732,7.228 74.87,4.204 69.146,4.204 C67.364,4.204 65.816,4.568 64.502,5.298 C63.2050619,6.00967078 62.1482048,7.08984346 61.465,8.402 C60.753,9.744 60.398,11.314 60.398,13.114 C60.398,14.86 60.744,16.412 61.438,17.771 C62.131,19.131 63.161,20.192 64.529,20.957 C65.897,21.723 67.562,22.105 69.524,22.105 C70.3312381,22.1071143 71.1365277,22.0256805 71.927,21.862 C72.701,21.7 73.511,21.412 74.357,20.998 L75.248,22.942 C74.258,23.41 73.3,23.738 72.372,23.927 C71.4167473,24.1194768 70.4444444,24.2146298 69.47,24.2111 L69.47,24.2111 Z M68.39,16.489 C69.308,16.489 70.06,16.169 70.644,15.53 C71.23,14.891 71.522,14.104 71.522,13.168 C71.522,12.232 71.23,11.44 70.644,10.792 C70.059,10.144 69.308,9.82 68.39,9.82 C67.472,9.82 66.73,10.144 66.162,10.792 C65.595,11.44 65.312,12.232 65.312,13.168 C65.312,14.104 65.595,14.891 66.162,15.531 C66.73,16.17 67.472,16.489 68.39,16.489 Z M95.093,0.1 L95.093,19 L92.15,19 L92.15,17.299 C91.79,17.911 91.228,18.401 90.462,18.77 C89.735972,19.1299651 88.9373523,19.3194449 88.127,19.324 C86.813,19.324 85.693,19.036 84.766,18.46 C83.848159,17.8947773 83.11574,17.0733695 82.659,16.097 C82.182,15.098 81.944,13.969 81.944,12.709 C81.944,11.467 82.196,10.347 82.7,9.348 C83.1869579,8.36715649 83.9404076,7.54335245 84.874,6.971 C85.819,6.386 86.93,6.094 88.208,6.094 C89.054,6.094 89.828,6.274 90.53,6.634 C91.232,6.994 91.772,7.489 92.15,8.119 L92.15,0.1 L95.093,0.1 L95.093,0.1 Z M88.559,16.705 C89.765,16.705 90.687,16.327 91.326,15.571 C91.966,14.815 92.285,13.861 92.285,12.709 C92.285,11.557 91.965,10.603 91.326,9.847 C90.687,9.091 89.765,8.713 88.559,8.713 C87.425,8.713 86.529,9.086 85.873,9.833 C85.215,10.581 84.887,11.539 84.887,12.709 C84.887,13.879 85.215,14.837 85.873,15.585 C86.53,16.332 87.425,16.705 88.559,16.705 Z M98.873,6.418 L101.816,6.418 L101.816,19 L98.873,19 L98.873,6.418 Z M100.358,4.609 C99.728,4.609 99.206,4.398 98.792,3.974 C98.3826591,3.56257534 98.1584508,3.00223509 98.171,2.422 C98.171,1.81 98.378,1.292 98.792,0.869 C99.206,0.446 99.728,0.235 100.358,0.235 C100.988,0.235 101.51,0.446 101.924,0.87 C102.338,1.293 102.545,1.81 102.545,2.422 C102.545,3.034 102.338,3.552 101.924,3.974 C101.51,4.398 100.988,4.609 100.358,4.609 L100.358,4.609 Z M105.596,6.418 L108.539,6.418 L108.539,8.173 C108.827,7.561 109.286,7.062 109.916,6.675 C110.546,6.287 111.257,6.094 112.049,6.094 C114.047,6.094 115.37,6.841 116.018,8.335 C116.324,7.687 116.828,7.152 117.53,6.728 C118.239172,6.30319552 119.052394,6.08370518 119.879,6.094 C122.903,6.094 124.415,7.741 124.415,11.035 L124.415,19 L121.472,19 L121.472,11.602 C121.472,10.576 121.274,9.82 120.878,9.334 C120.482,8.848 119.897,8.605 119.123,8.605 C118.295,8.605 117.647,8.879 117.179,9.428 C116.711,9.978 116.477,10.945 116.477,12.331 L116.477,19 L113.534,19 L113.534,11.575 C113.534,10.549 113.345,9.798 112.967,9.32 C112.589,8.843 112.013,8.605 111.239,8.605 C110.393,8.605 109.732,8.879 109.254,9.428 C108.777,9.978 108.539,10.945 108.539,12.331 L108.539,19 L105.596,19 L105.596,6.418 Z M127.52,10.549 L135.863,10.549 L135.863,13.168 L127.52,13.168 L127.52,10.549 L127.52,10.549 Z M143.504,19.324 C142.46,19.324 141.529,19.135 140.71,18.757 C139.89,18.379 139.26,17.875 138.82,17.245 C138.38349,16.6300171 138.151856,15.8931269 138.158,15.139 L141.101,15.139 C141.101,15.679 141.339,16.12 141.816,16.462 C142.294,16.804 142.91,16.975 143.666,16.975 C144.224,16.975 144.665,16.84 144.989,16.57 C145.313,16.3 145.475,15.94 145.475,15.49 C145.475,14.77 145.16,14.329 144.53,14.167 L141.29,13.276 C140.39,13.024 139.71,12.596 139.252,11.993 C138.792,11.39 138.563,10.657 138.563,9.793 C138.563,9.109 138.765,8.483 139.171,7.917 C139.576,7.349 140.142,6.904 140.871,6.58 C141.601,6.256 142.442,6.094 143.396,6.094 C144.998,6.094 146.226,6.454 147.082,7.174 C147.937,7.894 148.364,8.839 148.364,10.009 L145.475,10.009 C145.475,9.487 145.282,9.078 144.895,8.78 C144.507,8.483 143.972,8.335 143.288,8.335 C142.766,8.335 142.334,8.456 141.992,8.699 C141.65,8.943 141.479,9.253 141.479,9.631 C141.479,9.973 141.573,10.261 141.762,10.495 C141.952,10.729 142.217,10.891 142.559,10.981 L145.556,11.845 C146.42,12.097 147.122,12.525 147.662,13.127 C148.202,13.731 148.472,14.428 148.472,15.22 C148.472,16.444 148.036,17.434 147.162,18.19 C146.289,18.946 145.07,19.324 143.504,19.324 L143.504,19.324 Z M155.978,19.324 C154.556,19.324 153.422,18.901 152.576,18.055 C151.73,17.209 151.307,15.967 151.307,14.329 L151.307,6.418 L154.25,6.418 L154.25,13.6 C154.25,14.662 154.448,15.463 154.844,16.003 C155.24,16.543 155.897,16.813 156.815,16.813 C157.877,16.813 158.651,16.512 159.137,15.909 C159.623,15.305 159.866,14.509 159.866,13.519 L159.866,6.418 L162.809,6.418 L162.809,19 L159.866,19 L159.866,17.245 C159.092,18.631 157.796,19.324 155.978,19.324 L155.978,19.324 Z M166.589,6.418 L169.532,6.418 L169.532,8.173 C169.82,7.561 170.279,7.062 170.909,6.675 C171.539,6.287 172.25,6.094 173.042,6.094 C175.04,6.094 176.363,6.841 177.011,8.335 C177.317,7.687 177.821,7.152 178.523,6.728 C179.232172,6.30319552 180.045394,6.08370518 180.872,6.094 C183.896,6.094 185.408,7.741 185.408,11.035 L185.408,19 L182.465,19 L182.465,11.602 C182.465,10.576 182.267,9.82 181.871,9.334 C181.475,8.848 180.89,8.605 180.116,8.605 C179.288,8.605 178.64,8.879 178.172,9.428 C177.704,9.978 177.47,10.945 177.47,12.331 L177.47,19 L174.527,19 L174.527,11.575 C174.527,10.549 174.338,9.798 173.96,9.32 C173.582,8.843 173.006,8.605 172.232,8.605 C171.386,8.605 170.725,8.879 170.248,9.428 C169.77,9.978 169.532,10.945 169.532,12.331 L169.532,19 L166.589,19 L166.589,6.418 L166.589,6.418 Z M191.051,19.216 C190.421,19.216 189.886,18.991 189.445,18.541 C189.013009,18.1136302 188.773941,17.5286013 188.783,16.921 C188.783,16.291 189.003,15.756 189.445,15.315 C189.865982,14.882077 190.44723,14.642484 191.051,14.653 C191.681,14.653 192.221,14.873 192.671,15.315 C193.121,15.755 193.346,16.291 193.346,16.921 C193.346,17.551 193.121,18.091 192.671,18.541 C192.221,18.991 191.681,19.216 191.051,19.216 L191.051,19.216 Z M201.635,19.324 C200.357,19.324 199.245,19.045 198.301,18.487 C197.363791,17.937753 196.608005,17.1259954 196.127,16.152 C195.623,15.152 195.371,14.005 195.371,12.709 C195.371,11.413 195.623,10.266 196.127,9.267 C196.607417,8.29240415 197.362871,7.47993405 198.3,6.93 C199.246,6.372 200.357,6.093 201.635,6.093 C203.363,6.093 204.753,6.529 205.807,7.403 C206.86,8.276 207.458,9.441 207.602,10.899 L204.659,10.899 C204.497,10.161 204.173,9.612 203.687,9.252 C203.201,8.892 202.517,8.712 201.635,8.712 C200.591,8.712 199.777,9.058 199.191,9.752 C198.606,10.445 198.314,11.43 198.314,12.708 C198.314,13.986 198.606,14.971 199.191,15.665 C199.777,16.358 200.591,16.704 201.635,16.704 C203.309,16.704 204.317,16.02 204.659,14.652 L207.602,14.652 C207.458,16.074 206.86,17.208 205.806,18.054 C204.753,18.9 203.363,19.323 201.635,19.323 L201.635,19.324 Z M216.404,19.324 C215.054,19.324 213.875,19.036 212.867,18.46 C211.883341,17.9088261 211.081387,17.0832446 210.559,16.084 C210.027,15.076 209.762,13.951 209.762,12.709 C209.762,11.467 210.027,10.342 210.559,9.334 C211.081387,8.33475536 211.883341,7.50917392 212.867,6.958 C213.875,6.382 215.054,6.094 216.404,6.094 C217.754,6.094 218.933,6.382 219.941,6.958 C220.925029,7.50902029 221.727344,8.33461646 222.25,9.334 C222.78,10.342 223.046,11.467 223.046,12.709 C223.046,13.951 222.781,15.076 222.25,16.084 C221.727344,17.0833835 220.925029,17.9089797 219.941,18.46 C218.933,19.036 217.754,19.324 216.404,19.324 L216.404,19.324 Z M216.404,16.705 C217.556,16.705 218.46,16.336 219.118,15.598 C219.775,14.86 220.103,13.897 220.103,12.709 C220.103,11.521 219.775,10.558 219.117,9.82 C218.46,9.082 217.556,8.713 216.404,8.713 C215.252,8.713 214.348,9.082 213.69,9.82 C213.033,10.558 212.705,11.521 212.705,12.709 C212.705,13.897 213.033,14.86 213.69,15.598 C214.348,16.336 215.252,16.705 216.404,16.705 L216.404,16.705 Z M4.4,42.818 L0.35,42.818 L0.35,40.199 L4.4,40.199 L4.4,36.041 L7.208,36.041 L7.208,40.199 L11.258,40.199 L11.258,42.818 L7.208,42.818 L7.208,46.949 L4.4,46.949 L4.4,42.818 Z M20.357,50.324 C18.215,50.324 16.546,49.757 15.349,48.623 C14.151,47.489 13.553,45.905 13.553,43.871 L16.712,43.871 C16.712,45.095 17.027,46.04 17.657,46.706 C18.287,47.372 19.187,47.705 20.357,47.705 C21.311,47.705 22.085,47.435 22.679,46.895 C23.273,46.355 23.57,45.644 23.57,44.762 C23.57,42.746 22.418,41.738 20.114,41.738 L18.818,41.738 L18.818,39.065 L20.141,39.065 C22.103,39.065 23.084,38.165 23.084,36.365 C23.084,35.627 22.819,35.029 22.288,34.569 C21.756,34.11 21.077,33.881 20.249,33.881 C19.259,33.881 18.481,34.164 17.914,34.731 C17.346,35.299 17.063,36.077 17.063,37.067 L14.012,37.067 C14.012,35.303 14.574,33.904 15.7,32.868 C16.825,31.833 18.341,31.316 20.249,31.316 C21.437,31.316 22.485,31.527 23.395,31.951 C24.304,32.374 25.005,32.967 25.5,33.733 C25.996,34.498 26.243,35.375 26.243,36.365 C26.243,37.337 25.978,38.16 25.447,38.835 C24.915,39.511 24.146,40.01 23.138,40.334 C24.218,40.532 25.082,41.027 25.73,41.819 C26.378,42.611 26.702,43.583 26.702,44.735 C26.702,45.815 26.432,46.778 25.892,47.624 C25.352,48.47 24.601,49.131 23.637,49.608 C22.674,50.086 21.581,50.324 20.357,50.324 L20.357,50.324 Z M32.615,37.364 L28.727,37.364 L28.727,34.772 C29.861,34.772 30.725,34.669 31.319,34.462 C31.913,34.254 32.322,33.931 32.548,33.489 C32.773,33.049 32.885,32.432 32.885,31.64 L35.693,31.64 L35.693,50 L32.615,50 L32.615,37.364 Z M52.649,55.265 C50.795,53.663 49.328,51.836 48.248,49.784 C47.168,47.732 46.628,45.347 46.628,42.629 C46.628,39.911 47.168,37.526 48.248,35.474 C49.328,33.422 50.795,31.595 52.649,29.993 L54.458,31.64 C52.838,33.26 51.618,34.943 50.8,36.689 C49.98,38.435 49.571,40.415 49.571,42.629 C49.571,44.843 49.981,46.823 50.8,48.569 C51.619,50.315 52.838,51.998 54.458,53.618 L52.649,55.265 L52.649,55.265 Z M61.505,50.324 C59.201,50.324 57.451,49.519 56.253,47.908 C55.056,46.296 54.458,43.934 54.458,40.82 C54.458,37.706 55.056,35.344 56.254,33.733 C57.451,32.121 59.201,31.316 61.505,31.316 C63.809,31.316 65.559,32.121 66.757,33.733 C67.954,35.343 68.552,37.706 68.552,40.82 C68.552,43.934 67.954,46.296 66.756,47.907 C65.559,49.519 63.809,50.324 61.505,50.324 L61.505,50.324 Z M61.505,47.624 C62.873,47.624 63.899,47.062 64.583,45.936 C65.267,44.811 65.609,43.106 65.609,40.82 C65.609,38.534 65.267,36.829 64.583,35.703 C63.899,34.578 62.873,34.016 61.505,34.016 C60.137,34.016 59.111,34.578 58.427,35.704 C57.743,36.829 57.401,38.534 57.401,40.82 C57.401,43.106 57.743,44.811 58.427,45.937 C59.111,47.062 60.137,47.624 61.505,47.624 Z M68.552,53.618 C70.172,51.998 71.392,50.315 72.21,48.569 C73.03,46.823 73.439,44.843 73.439,42.629 C73.439,40.415 73.029,38.435 72.211,36.689 C71.391,34.943 70.172,33.26 68.552,31.64 L70.361,29.993 C72.215,31.595 73.682,33.422 74.762,35.474 C75.842,37.526 76.382,39.911 76.382,42.629 C76.382,45.347 75.842,47.732 74.762,49.784 C73.682,51.836 72.215,53.663 70.361,55.265 L68.552,53.618 L68.552,53.618 Z M79.082,50 C79.082,47.966 79.442,46.297 80.162,44.992 C80.882,43.686 82.034,42.593 83.618,41.711 L86.318,40.226 C87.848,39.38 88.613,38.219 88.613,36.743 C88.613,35.933 88.361,35.276 87.857,34.772 C87.353,34.268 86.705,34.016 85.913,34.016 C84.887,34.016 84.095,34.349 83.537,35.015 C82.979,35.681 82.7,36.635 82.7,37.877 L79.487,37.877 C79.487,36.563 79.748,35.411 80.27,34.421 C80.7728189,33.4506473 81.5528925,32.6517767 82.511,32.126 C83.483,31.586 84.617,31.316 85.913,31.316 C87.767,31.316 89.229,31.788 90.301,32.734 C91.371,33.679 91.907,34.961 91.907,36.581 C91.907,37.697 91.592,38.75 90.962,39.74 C90.332,40.73 89.45,41.549 88.316,42.197 L85.67,43.709 C84.662,44.285 83.965,44.807 83.577,45.275 C83.19,45.743 82.916,46.391 82.754,47.219 L91.853,47.219 L91.853,50 L79.082,50 Z M101.114,50.324 C98.81,50.324 97.06,49.519 95.862,47.908 C94.665,46.296 94.067,43.934 94.067,40.82 C94.067,37.706 94.665,35.344 95.863,33.733 C97.06,32.121 98.81,31.316 101.114,31.316 C103.418,31.316 105.168,32.121 106.365,33.733 C107.563,35.343 108.161,37.706 108.161,40.82 C108.161,43.934 107.563,46.296 106.365,47.907 C105.168,49.519 103.418,50.324 101.114,50.324 L101.114,50.324 Z M101.114,47.624 C102.482,47.624 103.508,47.062 104.192,45.936 C104.876,44.811 105.218,43.106 105.218,40.82 C105.218,38.534 104.876,36.829 104.192,35.703 C103.508,34.578 102.482,34.016 101.114,34.016 C99.746,34.016 98.72,34.578 98.036,35.704 C97.352,36.829 97.01,38.534 97.01,40.82 C97.01,43.106 97.352,44.811 98.036,45.937 C98.72,47.062 99.746,47.624 101.114,47.624 Z M117.476,50 C117.476,47.966 117.836,46.297 118.556,44.992 C119.276,43.686 120.428,42.593 122.012,41.711 L124.712,40.226 C126.242,39.38 127.007,38.219 127.007,36.743 C127.007,35.933 126.755,35.276 126.251,34.772 C125.747,34.268 125.099,34.016 124.307,34.016 C123.281,34.016 122.489,34.349 121.931,35.015 C121.373,35.681 121.094,36.635 121.094,37.877 L117.881,37.877 C117.881,36.563 118.142,35.411 118.664,34.421 C119.166819,33.4506473 119.946892,32.6517767 120.905,32.126 C121.877,31.586 123.011,31.316 124.307,31.316 C126.161,31.316 127.623,31.788 128.695,32.734 C129.765,33.679 130.301,34.961 130.301,36.581 C130.301,37.697 129.986,38.75 129.356,39.74 C128.726,40.73 127.844,41.549 126.71,42.197 L124.064,43.709 C123.056,44.285 122.359,44.807 121.972,45.275 C121.584,45.743 121.31,46.391 121.148,47.219 L130.247,47.219 L130.247,50 L117.476,50 L117.476,50 Z M136.619,37.364 L132.731,37.364 L132.731,34.772 C133.865,34.772 134.729,34.669 135.323,34.462 C135.917,34.254 136.326,33.931 136.551,33.489 C136.777,33.049 136.889,32.432 136.889,31.64 L139.697,31.64 L139.697,50 L136.619,50 L136.619,37.364 L136.619,37.364 Z M157.544,50.324 C155.24,50.324 153.49,49.519 152.292,47.908 C151.095,46.296 150.497,43.934 150.497,40.82 C150.497,37.706 151.095,35.344 152.292,33.733 C153.49,32.121 155.24,31.316 157.544,31.316 C159.848,31.316 161.598,32.121 162.795,33.733 C163.993,35.343 164.591,37.706 164.591,40.82 C164.591,43.934 163.993,46.296 162.795,47.907 C161.598,49.519 159.848,50.324 157.544,50.324 L157.544,50.324 Z M157.544,47.624 C158.912,47.624 159.938,47.062 160.622,45.936 C161.306,44.811 161.648,43.106 161.648,40.82 C161.648,38.534 161.306,36.829 160.622,35.703 C159.938,34.578 158.912,34.016 157.544,34.016 C156.176,34.016 155.15,34.578 154.466,35.704 C153.782,36.829 153.44,38.534 153.44,40.82 C153.44,43.106 153.782,44.811 154.466,45.937 C155.15,47.062 156.176,47.624 157.544,47.624 Z M170.639,37.364 L166.751,37.364 L166.751,34.772 C167.885,34.772 168.749,34.669 169.343,34.462 C169.937,34.254 170.346,33.931 170.571,33.489 C170.797,33.049 170.909,32.432 170.909,31.64 L173.717,31.64 L173.717,50 L170.639,50 L170.639,37.364 L170.639,37.364 Z M192.887,34.475 L184.517,34.475 L184.517,31.64 L197.531,31.64 L188.27,50 L184.841,50 L192.887,34.475 Z M226.284,37.615 C226.284,39.271 225.825,40.693 224.907,41.881 L219.129,49.684 L215.43,49.684 L219.696,44.23 L219.642,44.23 C218.292,44.23 217.113,43.942 216.105,43.366 C215.120971,42.8149797 214.318656,41.9893835 213.796,40.99 C213.266,39.982 213,38.857 213,37.615 C213,36.373 213.265,35.248 213.796,34.24 C214.318656,33.2406165 215.120971,32.4150203 216.105,31.864 C217.113,31.288 218.292,31 219.642,31 C220.992,31 222.171,31.288 223.179,31.864 C224.162659,32.4151739 224.964613,33.2407554 225.487,34.24 C226.019,35.248 226.284,36.373 226.284,37.615 L226.284,37.615 Z M215.943,37.615 C215.943,38.803 216.271,39.766 216.929,40.504 C217.586,41.242 218.49,41.611 219.642,41.611 C220.794,41.611 221.698,41.242 222.356,40.504 C223.013,39.766 223.341,38.803 223.341,37.615 C223.341,36.427 223.013,35.464 222.356,34.726 C221.698,33.988 220.794,33.619 219.642,33.619 C218.49,33.619 217.586,33.988 216.928,34.726 C216.271,35.464 215.943,36.427 215.943,37.615 L215.943,37.615 Z M204.615,50.008 C203.283,50.008 202.118,49.783 201.119,49.333 C200.119,48.883 199.35,48.249 198.81,47.429 C198.27,46.61 198,45.652 198,44.554 C198,43.474 198.247,42.552 198.742,41.787 C199.238,41.021 199.944,40.477 200.862,40.153 C200.07,39.829 199.44,39.285 198.972,38.52 C198.504,37.754 198.27,36.886 198.27,35.914 C198.27,34.96 198.535,34.11 199.067,33.363 C199.597,32.615 200.344,32.035 201.307,31.621 C202.271,31.207 203.373,31 204.615,31 C205.857,31 206.959,31.207 207.923,31.621 C208.886,32.035 209.633,32.615 210.163,33.362 C210.695,34.11 210.96,34.96 210.96,35.914 C210.96,36.868 210.717,37.732 210.231,38.506 C209.745,39.28 209.106,39.829 208.314,40.153 C209.232,40.477 209.947,41.021 210.461,41.786 C210.974,42.552 211.23,43.474 211.23,44.554 C211.23,45.652 210.96,46.61 210.42,47.43 C209.88,48.249 209.11,48.883 208.111,49.333 C207.112,49.783 205.947,50.008 204.615,50.008 L204.615,50.008 Z M204.725,39.227 C205.697,39.227 206.466,38.98 207.034,38.485 C207.601,37.989 207.884,37.337 207.884,36.527 C207.884,35.681 207.601,35.015 207.034,34.529 C206.466,34.043 205.697,33.8 204.725,33.8 C203.753,33.8 202.984,34.043 202.417,34.529 C201.849,35.015 201.566,35.681 201.566,36.527 C201.566,37.337 201.863,37.989 202.457,38.484 C203.051,38.98 203.807,39.227 204.725,39.227 L204.725,39.227 Z M204.725,47.705 C205.769,47.705 206.606,47.431 207.236,46.882 C207.866,46.332 208.181,45.599 208.181,44.681 C208.181,43.763 207.866,43.03 207.236,42.481 C206.606,41.931 205.769,41.657 204.725,41.657 C203.717,41.657 202.889,41.936 202.241,42.494 C201.593,43.052 201.269,43.781 201.269,44.681 C201.269,45.599 201.584,46.332 202.214,46.881 C202.844,47.431 203.681,47.705 204.725,47.705 L204.725,47.705 Z" id="Shape"></path>
        </g>
    </g>
</svg>