<svg xmlns="http://www.w3.org/2000/svg" width="258.593" height="83.72" viewBox="0 0 258.593 83.72">
  <metadata><?xpacket begin="﻿" id="W5M0MpCehiHzreSzNTczkc9d"?>
<x:xmpmeta xmlns:x="adobe:ns:meta/" x:xmptk="Adobe XMP Core 5.6-c140 79.160451, 2017/05/06-01:08:21        ">
   <rdf:RDF xmlns:rdf="http://www.w3.org/1999/02/22-rdf-syntax-ns#">
      <rdf:Description rdf:about=""/>
   </rdf:RDF>
</x:xmpmeta>
                                                                                                    
                                                                                                    
                                                                                                    
                                                                                                    
                                                                                                    
                                                                                                    
                                                                                                    
                                                                                                    
                                                                                                    
                                                                                                    
                                                                                                    
                                                                                                    
                                                                                                    
                                                                                                    
                                                                                                    
                                                                                                    
                                                                                                    
                                                                                                    
                                                                                                    
                                                                                                    
                           
<?xpacket end="w"?></metadata>
<defs>
    <style>
      .cls-1 {
        fill: #fff;
        fill-rule: evenodd;
      }
    </style>
  </defs>
  <path id="contact_hello_dim-sum.co_31_0_20_44_30_55_33" data-name="contact hello@dim-sum.co +31 (0)20 44 30 55 33" class="cls-1" d="M120.508,1366.37c3.542,0,5.812-2.12,6.036-5.12h-2.769a2.972,2.972,0,0,1-3.142,2.8c-2.22,0-3.617-1.5-3.617-4.35v-0.2c0-2.7,1.472-4.3,3.542-4.3a2.7,2.7,0,0,1,2.993,2.48h2.918c-0.349-3.6-3.068-4.9-5.961-4.9a6.429,6.429,0,0,0-6.585,6.77v0.2A6.237,6.237,0,0,0,120.508,1366.37Zm14.467-2.34c-2.294,0-3.616-1.68-3.616-4.35v-0.2c0-2.7,1.372-4.33,3.616-4.33s3.592,1.65,3.592,4.35v0.18C138.567,1362.35,137.22,1364.03,134.975,1364.03Zm-0.024,2.34a6.416,6.416,0,0,0,6.709-6.72v-0.2a6.7,6.7,0,1,0-13.394.08v0.2A6.393,6.393,0,0,0,134.951,1366.37Zm9.428-.25H147.4v-7.69a2.9,2.9,0,0,1,3.068-3.13c1.8,0,2.594.9,2.594,2.88v7.94h3.018v-8.22c0-3.6-1.846-5.12-4.465-5.12a4.482,4.482,0,0,0-4.215,2.35v-2.08h-3.019v13.07Zm19.606,0.23a5.654,5.654,0,0,0,2.045-.33v-2.39a3.79,3.79,0,0,1-1.471.25,1.418,1.418,0,0,1-1.5-1.68v-6.87h2.869v-2.28h-2.869v-2.87h-3.018v2.87H158.3v2.28h1.746v7.15C160.044,1364.95,161.391,1366.35,163.985,1366.35Zm8.306,0.02a4.544,4.544,0,0,0,3.991-1.84v1.59h2.968v-8.57c0-3.57-2.295-4.77-5.213-4.77s-5.338,1.27-5.587,4.32h2.918a2.175,2.175,0,0,1,2.494-2.05c1.771,0,2.37.88,2.37,2.63v0.67h-1.621c-3.742,0-6.685,1.1-6.685,4.15C167.926,1365.23,169.9,1366.37,172.291,1366.37Zm0.723-2.17c-1.5,0-2.095-.72-2.095-1.82,0-1.6,1.472-2.13,3.767-2.13h1.546v1.3C176.232,1363.23,174.86,1364.2,173.014,1364.2Zm15.416,2.17c3.542,0,5.811-2.12,6.036-5.12H191.7a2.972,2.972,0,0,1-3.143,2.8c-2.22,0-3.616-1.5-3.616-4.35v-0.2c0-2.7,1.471-4.3,3.542-4.3a2.7,2.7,0,0,1,2.993,2.48h2.918c-0.349-3.6-3.068-4.9-5.961-4.9a6.429,6.429,0,0,0-6.585,6.77v0.2A6.237,6.237,0,0,0,188.43,1366.37Zm13.07-.02a5.665,5.665,0,0,0,2.046-.33v-2.39a3.791,3.791,0,0,1-1.472.25,1.418,1.418,0,0,1-1.5-1.68v-6.87h2.869v-2.28h-2.869v-2.87h-3.018v2.87h-1.746v2.28h1.746v7.15C197.559,1364.95,198.906,1366.35,201.5,1366.35Zm-86.7,31.82h3.018v-7.7a2.894,2.894,0,0,1,3.068-3.12c1.8,0,2.594.9,2.594,2.87v7.95h3.018v-8.22c0-3.6-1.846-5.13-4.465-5.13a4.5,4.5,0,0,0-4.215,2.35v-8.12H114.8v19.12Zm20.9,0.25c3.342,0,5.562-1.5,5.986-4.25h-2.918c-0.225,1.28-1.173,2-2.994,2-2.244,0-3.492-1.4-3.591-3.87h9.553v-0.88c0-4.67-2.919-6.6-6.161-6.6-3.717,0-6.485,2.7-6.485,6.75v0.2A6.255,6.255,0,0,0,135.7,1398.42Zm-3.468-8.15c0.3-2.02,1.522-3.25,3.343-3.25,1.871,0,3.018,1,3.168,3.25h-6.511Zm12.273,7.9h3.018v-19.12H144.5v19.12Zm6.76,0h3.018v-19.12h-3.018v19.12Zm12.521-2.1c-2.295,0-3.617-1.67-3.617-4.35v-0.2c0-2.7,1.372-4.32,3.617-4.32s3.592,1.65,3.592,4.35v0.17C167.377,1394.4,166.03,1396.07,163.785,1396.07Zm-0.025,2.35a6.422,6.422,0,0,0,6.71-6.72v-0.2a6.7,6.7,0,1,0-13.394.07v0.2A6.4,6.4,0,0,0,163.76,1398.42Zm19.107,3.53c3.667,0,6.76-1.53,8.182-3.78h-2.071a8.564,8.564,0,0,1-6.086,2.1c-5.662,0-8.53-3.9-8.53-8.52,0-5.45,3.816-9.13,8.879-9.13,5.114,0,8.182,3.03,8.182,7.48,0,3.5-1.4,4.92-2.794,4.92-0.923,0-1.322-.62-1.147-1.85l0.773-6.5h-2.694l-0.175,1.43a2.885,2.885,0,0,0-2.918-1.63c-2.719,0-4.914,2.4-4.914,5.83,0,2.77,1.6,4.47,4.041,4.47a4.052,4.052,0,0,0,3.567-2.22c0.274,1.3,1.1,2.1,3.193,2.1,2.245,0,4.963-1.78,4.963-6.58,0-5.27-4.14-9.12-10.077-9.12a10.747,10.747,0,0,0-10.875,10.8C172.366,1397.22,176.157,1401.95,182.867,1401.95Zm-0.524-7.3c-1.222,0-2.02-.95-2.02-2.43,0-2.25,1.147-3.6,2.519-3.6a2.082,2.082,0,0,1,2.22,2.4C185.062,1393.32,183.715,1394.65,182.343,1394.65Zm18.609,3.77a5,5,0,0,0,4.29-2.45v2.2h3.018v-19.12h-3.018v8.05a4.458,4.458,0,0,0-4.166-2.28c-3.392,0-5.861,2.65-5.861,6.83v0.2C195.215,1396.1,197.684,1398.42,200.952,1398.42Zm0.748-2.4c-1.946,0-3.392-1.37-3.392-4.25v-0.2c0-2.82,1.3-4.37,3.517-4.37,2.2,0,3.517,1.42,3.517,4.3v0.2C205.342,1394.62,203.8,1396.02,201.7,1396.02Zm10.227,2.15h3.018V1385.1h-3.018v13.07Zm1.472-15.22a1.741,1.741,0,1,0-1.8-1.73A1.745,1.745,0,0,0,213.4,1382.95Zm5.213,15.22h3.018v-7.82a2.784,2.784,0,0,1,2.869-3c1.472,0,2.32.82,2.32,2.75v8.07h3.018v-7.82a2.784,2.784,0,0,1,2.868-3c1.5,0,2.32.82,2.32,2.75v8.07h3.018v-8.27c0-3.6-1.946-5.08-4.34-5.08a5.159,5.159,0,0,0-4.415,2.35,3.672,3.672,0,0,0-3.692-2.35,4.371,4.371,0,0,0-3.966,2.28v-2h-3.018v13.07Zm22.5-5.72H247.1v-2.5h-5.986v2.5Zm13.669,5.97c3.342,0,5.213-1.52,5.213-4.17,0-2.78-1.821-3.53-4.889-4-2.07-.35-2.694-0.73-2.694-1.68,0-.92.774-1.55,2.071-1.55a2.012,2.012,0,0,1,2.319,1.75H259.6c-0.324-2.95-2.444-3.95-5.113-3.95-2.445,0-4.889,1.3-4.889,3.93,0,2.45,1.272,3.42,4.714,3.97,1.921,0.33,2.794.73,2.794,1.8,0,1.1-.724,1.68-2.345,1.68-1.771,0-2.444-.78-2.594-2.1h-2.843C249.443,1396.87,251.414,1398.42,254.781,1398.42Zm12.222,0a4.384,4.384,0,0,0,4.141-2.3v2.05h3.018V1385.1h-3.018v7.77A2.915,2.915,0,0,1,268.1,1396c-1.746,0-2.569-.9-2.569-2.88v-8.02h-3.018v8.37C262.514,1396.95,264.434,1398.42,267,1398.42Zm10.727-.25h3.018v-7.82a2.784,2.784,0,0,1,2.868-3c1.472,0,2.32.82,2.32,2.75v8.07h3.018v-7.82a2.784,2.784,0,0,1,2.868-3c1.5,0,2.32.82,2.32,2.75v8.07h3.018v-8.27c0-3.6-1.945-5.08-4.34-5.08a5.159,5.159,0,0,0-4.415,2.35,3.67,3.67,0,0,0-3.691-2.35,4.368,4.368,0,0,0-3.966,2.28v-2H277.73v13.07Zm24.694,0.18a1.946,1.946,0,0,0,2-1.95,1.983,1.983,0,0,0-3.966,0A1.94,1.94,0,0,0,302.424,1398.35Zm10.5,0.07c3.542,0,5.812-2.12,6.037-5.12h-2.769a2.973,2.973,0,0,1-3.143,2.8c-2.22,0-3.617-1.5-3.617-4.35v-0.2c0-2.7,1.472-4.3,3.542-4.3a2.687,2.687,0,0,1,2.993,2.47h2.919c-0.349-3.6-3.068-4.9-5.962-4.9a6.438,6.438,0,0,0-6.585,6.78v0.2A6.243,6.243,0,0,0,312.925,1398.42Zm14.468-2.35c-2.295,0-3.617-1.67-3.617-4.35v-0.2c0-2.7,1.372-4.32,3.617-4.32s3.592,1.65,3.592,4.35v0.17C330.985,1394.4,329.638,1396.07,327.393,1396.07Zm-0.025,2.35a6.422,6.422,0,0,0,6.71-6.72v-0.2a6.7,6.7,0,1,0-13.395.07v0.2A6.4,6.4,0,0,0,327.368,1398.42Zm-208.9,29.4h2.519v-4.95h4.564v-2.35h-4.564v-4.95h-2.519v4.95h-4.54v2.35h4.54v4.95Zm15.564,2.65c4.091,0,6.685-2.05,6.685-5.35a4.152,4.152,0,0,0-3.442-4.32,3.987,3.987,0,0,0,2.893-3.9c0-2.65-2.17-4.8-5.886-4.8-3.817,0-6.136,2.37-6.311,5.47h2.943a3.121,3.121,0,0,1,3.318-2.95,2.452,2.452,0,0,1,2.769,2.53c0,1.67-.923,2.62-2.969,2.62h-1.272v2.38h1.372c2.17,0,3.218.97,3.218,2.92,0,1.78-1.073,2.9-3.393,2.9a3.287,3.287,0,0,1-3.616-3.27h-3.018C127.467,1428.12,129.787,1430.47,134.027,1430.47Zm12.273-.25h3.342v-17.87h-2.968l-4.141,2.95v2.92l3.767-2.57v14.57Zm17.136,3.7h2.644a19.414,19.414,0,0,1,0-23.05h-2.644A18.108,18.108,0,0,0,163.436,1433.92Zm11.873-6.1c-2.669,0-4.215-2.05-4.215-6.1v-0.9c0-3.97,1.471-6.12,4.165-6.12,2.669,0,4.116,2.3,4.116,6.1v0.87C179.375,1425.72,178.053,1427.82,175.309,1427.82Zm-0.075,2.65c4.665,0,7.458-3.42,7.458-8.8v-0.9c0-5.37-2.943-8.67-7.458-8.67-4.49,0-7.483,3.32-7.483,8.75v0.9C167.751,1427.12,170.7,1430.47,175.234,1430.47Zm9.155,3.4h2.619a18.112,18.112,0,0,0,0-23.05h-2.619A19.518,19.518,0,0,1,184.389,1433.87Zm8.306-3.65h12.9v-2.57h-7.583l3.966-3.88c2.12-2.05,3.492-4.07,3.492-6.4,0-3.15-2.2-5.27-5.887-5.27-3.766,0-6.111,2.25-6.335,6.15h3.043c0.3-2.53,1.422-3.55,3.193-3.55a2.468,2.468,0,0,1,2.669,2.72c0,1.7-1.023,3.28-2.719,5.08l-6.735,7.12v0.6Zm22.749-2.4c-2.669,0-4.216-2.05-4.216-6.1v-0.9c0-3.97,1.472-6.12,4.166-6.12,2.669,0,4.115,2.3,4.115,6.1v0.87C219.509,1425.72,218.188,1427.82,215.444,1427.82Zm-0.075,2.65c4.664,0,7.458-3.42,7.458-8.8v-0.9c0-5.37-2.943-8.67-7.458-8.67-4.49,0-7.483,3.32-7.483,8.75v0.9C207.886,1427.12,210.829,1430.47,215.369,1430.47Zm24.27-.25h3.218v-3.62h2.394v-2.48h-2.394v-11.77h-4.166l-7.882,13.07v1.18h8.83v3.62Zm-5.288-6.1,5.338-9.25v9.25h-5.338Zm21.277,6.1h3.218v-3.62h2.394v-2.48h-2.394v-11.77H254.68l-7.882,13.07v1.18h8.83v3.62Zm-5.288-6.1,5.338-9.25v9.25H250.34Zm25.193,6.35c4.091,0,6.685-2.05,6.685-5.35a4.152,4.152,0,0,0-3.442-4.32,3.987,3.987,0,0,0,2.893-3.9c0-2.65-2.17-4.8-5.886-4.8-3.817,0-6.136,2.37-6.311,5.47h2.943a3.121,3.121,0,0,1,3.318-2.95,2.451,2.451,0,0,1,2.768,2.53c0,1.67-.922,2.62-2.968,2.62h-1.272v2.38h1.372c2.17,0,3.218.97,3.218,2.92,0,1.78-1.073,2.9-3.393,2.9a3.287,3.287,0,0,1-3.616-3.27h-3.018C268.973,1428.12,271.293,1430.47,275.533,1430.47Zm16.787-2.65c-2.669,0-4.215-2.05-4.215-6.1v-0.9c0-3.97,1.472-6.12,4.165-6.12,2.669,0,4.116,2.3,4.116,6.1v0.87C296.386,1425.72,295.064,1427.82,292.32,1427.82Zm-0.075,2.65c4.665,0,7.458-3.42,7.458-8.8v-0.9c0-5.37-2.943-8.67-7.458-8.67-4.489,0-7.482,3.32-7.482,8.75v0.9C284.763,1427.12,287.706,1430.47,292.245,1430.47Zm21.926,0c3.841,0,6.56-2.37,6.56-6.15,0-3.75-2.27-6-5.487-6a4.926,4.926,0,0,0-3.842,1.5l0.025-4.85h8.281v-2.62H308.883l-0.15,9.95h1.7a4.508,4.508,0,0,1,3.717-1.55c1.971,0,3.218,1.37,3.218,3.52,0,2.2-1.173,3.63-3.218,3.63-2.3,0-2.968-1.15-3.243-2.8H307.81C308.01,1428.17,309.981,1430.47,314.171,1430.47Zm14.942,0c3.841,0,6.56-2.37,6.56-6.15,0-3.75-2.27-6-5.488-6a4.922,4.922,0,0,0-3.841,1.5l0.025-4.85h8.281v-2.62H323.825l-0.15,9.95h1.7a4.506,4.506,0,0,1,3.717-1.55c1.97,0,3.217,1.37,3.217,3.52,0,2.2-1.172,3.63-3.217,3.63-2.3,0-2.969-1.15-3.243-2.8h-3.093C322.952,1428.17,324.922,1430.47,329.113,1430.47Zm21.326,0c4.091,0,6.685-2.05,6.685-5.35a4.152,4.152,0,0,0-3.442-4.32,3.987,3.987,0,0,0,2.893-3.9c0-2.65-2.17-4.8-5.886-4.8-3.817,0-6.136,2.37-6.311,5.47h2.943a3.121,3.121,0,0,1,3.318-2.95,2.452,2.452,0,0,1,2.769,2.53c0,1.67-.923,2.62-2.969,2.62h-1.272v2.38h1.372c2.17,0,3.218.97,3.218,2.92,0,1.78-1.073,2.9-3.393,2.9a3.287,3.287,0,0,1-3.616-3.27H343.73C343.879,1428.12,346.2,1430.47,350.439,1430.47Zm15.416,0c4.09,0,6.685-2.05,6.685-5.35a4.152,4.152,0,0,0-3.443-4.32,3.988,3.988,0,0,0,2.894-3.9c0-2.65-2.17-4.8-5.887-4.8-3.816,0-6.136,2.37-6.31,5.47h2.943a3.12,3.12,0,0,1,3.317-2.95,2.452,2.452,0,0,1,2.769,2.53c0,1.67-.923,2.62-2.968,2.62h-1.272v2.38h1.372c2.17,0,3.217.97,3.217,2.92,0,1.78-1.072,2.9-3.392,2.9a3.288,3.288,0,0,1-3.617-3.27h-3.018C359.3,1428.12,361.614,1430.47,365.855,1430.47Z" transform="translate(-113.938 -1350.19)"/>
</svg>
