<?xml version="1.0" encoding="UTF-8"?>
<svg width="260px" height="56px" viewBox="0 0 260 56" version="1.1" xmlns="http://www.w3.org/2000/svg" xmlns:xlink="http://www.w3.org/1999/xlink">
    <!-- Generator: Sketch 50.2 (55047) - http://www.bohemiancoding.com/sketch -->
    <title>text-contact-white</title>
    <desc>Created with Sketch.</desc>
    <defs></defs>
    <g id="Page-1" stroke="none" stroke-width="1" fill="none" fill-rule="evenodd">
        <g id="text-contact-white" fill="#FFFFFF">
            <path d="M1.862,19.98 L4.88,19.98 L4.88,12.28 C4.81273254,11.4429095 5.11240093,10.6178796 5.70121046,10.0190903 C6.29001999,9.42030094 7.10989729,9.10680979 7.948,9.16 C9.748,9.16 10.542,10.06 10.542,12.03 L10.542,19.98 L13.56,19.98 L13.56,11.76 C13.56,8.16 11.714,6.63 9.095,6.63 C7.35324961,6.53004305 5.71067302,7.44583308 4.88,8.98 L4.88,0.86 L1.862,0.86 L1.862,19.98 Z M22.762,20.23 C26.104,20.23 28.324,18.73 28.748,15.98 L25.83,15.98 C25.605,17.26 24.657,17.98 22.836,17.98 C20.592,17.98 19.344,16.58 19.245,14.11 L28.798,14.11 L28.798,13.23 C28.798,8.56 25.879,6.63 22.637,6.63 C18.92,6.63 16.152,9.33 16.152,13.38 L16.152,13.58 C16.0356285,15.3697699 16.6931456,17.1233852 17.9575448,18.3954359 C19.2219441,19.6674866 20.9715606,20.3355714 22.762,20.23 Z M19.294,12.08 C19.594,10.06 20.816,8.83 22.637,8.83 C24.508,8.83 25.655,9.83 25.805,12.08 L19.294,12.08 Z M31.567,19.98 L34.585,19.98 L34.585,0.86 L31.562,0.86 L31.562,19.98 L31.567,19.98 Z M38.327,19.98 L41.345,19.98 L41.345,0.86 L38.327,0.86 L38.327,19.98 Z M50.848,17.88 C48.553,17.88 47.231,16.21 47.231,13.53 L47.231,13.33 C47.231,10.63 48.603,9.01 50.848,9.01 C53.093,9.01 54.44,10.66 54.44,13.36 L54.44,13.53 C54.439,16.21 53.092,17.88 50.847,17.88 L50.848,17.88 Z M50.823,20.23 C52.6285554,20.3130941 54.3855368,19.6314703 55.6626565,18.3524472 C56.9397763,17.0734242 57.6187829,15.3154297 57.533,13.51 L57.533,13.31 C57.5921595,10.8699528 56.3197335,8.59077659 54.2116009,7.36069241 C52.1034682,6.13060822 49.4931951,6.14425009 47.3980346,7.39630161 C45.3028742,8.64835312 44.0543399,10.9407044 44.139,13.38 L44.139,13.58 C44.0671836,15.3705418 44.749335,17.1091778 46.0195896,18.37316 C47.2898442,19.6371422 49.0318356,20.3106788 50.822,20.23 L50.823,20.23 Z M69.93,23.76 C73.597,23.76 76.69,22.23 78.112,19.98 L76.041,19.98 C74.3626812,21.4449213 72.1795843,22.1982081 69.955,22.08 C64.293,22.08 61.425,18.18 61.425,13.56 C61.425,8.11 65.241,4.43 70.304,4.43 C75.418,4.43 78.486,7.46 78.486,11.91 C78.486,15.41 77.086,16.83 75.692,16.83 C74.769,16.83 74.37,16.21 74.545,14.98 L75.318,8.48 L72.624,8.48 L72.449,9.91 C71.9221889,8.80118073 70.7513964,8.14717395 69.531,8.28 C66.812,8.28 64.617,10.68 64.617,14.11 C64.617,16.88 66.217,18.58 68.658,18.58 C70.1677453,18.5623582 71.5424668,17.7067704 72.225,16.36 C72.499,17.66 73.325,18.46 75.418,18.46 C77.663,18.46 80.381,16.68 80.381,11.88 C80.381,6.61 76.241,2.76 70.304,2.76 C67.4223934,2.7256407 64.6477165,3.85002492 62.6029293,5.88071011 C60.5581422,7.9113953 59.4145832,10.6782247 59.429,13.56 C59.428,19.03 63.219,23.76 69.929,23.76 L69.93,23.76 Z M69.406,16.46 C68.184,16.46 67.386,15.51 67.386,14.03 C67.386,11.78 68.533,10.43 69.905,10.43 C70.5405223,10.3799587 71.1639447,10.6238295 71.5968268,11.0918102 C72.0297089,11.5597908 72.2243358,12.2002975 72.125,12.83 C72.124,15.13 70.777,16.46 69.405,16.46 L69.406,16.46 Z M88.015,20.23 C89.7767681,20.2261667 91.4065003,19.2954339 92.305,17.78 L92.305,19.98 L95.323,19.98 L95.323,0.86 L92.305,0.86 L92.305,8.91 C91.4704116,7.41201957 89.8505975,6.52551545 88.139,6.63 C84.747,6.63 82.278,9.28 82.278,13.46 L82.278,13.66 C82.277,17.91 84.746,20.23 88.014,20.23 L88.015,20.23 Z M88.763,17.83 C86.817,17.83 85.371,16.46 85.371,13.58 L85.371,13.38 C85.371,10.56 86.671,9.01 88.888,9.01 C91.088,9.01 92.405,10.43 92.405,13.31 L92.405,13.51 C92.404,16.43 90.862,17.83 88.762,17.83 L88.763,17.83 Z M98.99,19.98 L102.008,19.98 L102.008,6.91 L98.99,6.91 L98.99,19.98 Z M100.462,4.76 C101.416601,4.72761558 102.166868,3.93217508 102.143448,2.97731221 C102.120028,2.02244933 101.331667,1.26474685 100.376626,1.27920031 C99.4215855,1.29365378 98.6565143,2.07486571 98.662,3.03 C98.6658053,3.49988396 98.8589561,3.94837496 99.1977475,4.27399107 C99.5365388,4.59960719 99.9923346,4.77482599 100.462,4.76 Z M105.675,19.98 L108.693,19.98 L108.693,12.16 C108.631069,11.3699665 108.908753,10.5909797 109.456461,10.0182631 C110.004169,9.44554647 110.76999,9.13338133 111.562,9.16 C113.034,9.16 113.882,9.98 113.882,11.91 L113.882,19.98 L116.9,19.98 L116.9,12.16 C116.838093,11.3701459 117.115645,10.5913284 117.663129,10.018647 C118.210612,9.4459656 118.976161,9.13367273 119.768,9.16 C121.268,9.16 122.088,9.98 122.088,11.91 L122.088,19.98 L125.106,19.98 L125.106,11.71 C125.106,8.11 123.16,6.63 120.766,6.63 C118.987633,6.59990088 117.319179,7.48797967 116.351,8.98 C115.772565,7.46874108 114.273031,6.51427043 112.659,6.63 C111.013077,6.58230969 109.480017,7.46364525 108.693,8.91 L108.693,6.91 L105.675,6.91 L105.675,19.98 Z M128.175,14.26 L134.162,14.26 L134.162,11.76 L128.176,11.76 L128.176,14.26 L128.175,14.26 Z M141.844,20.23 C145.186,20.23 147.057,18.71 147.057,16.06 C147.057,13.28 145.236,12.53 142.168,12.06 C140.098,11.71 139.474,11.33 139.474,10.38 C139.474,9.46 140.248,8.83 141.545,8.83 C142.086425,8.74252188 142.640096,8.87985715 143.077877,9.21022228 C143.515658,9.5405874 143.799603,10.0353475 143.864,10.58 L146.662,10.58 C146.338,7.63 144.218,6.63 141.549,6.63 C139.104,6.63 136.66,7.93 136.66,10.56 C136.66,13.01 137.932,13.98 141.374,14.53 C143.295,14.86 144.168,15.26 144.168,16.33 C144.168,17.43 143.444,18.01 141.823,18.01 C140.052,18.01 139.379,17.23 139.229,15.91 L136.386,15.91 C136.505,18.68 138.476,20.23 141.843,20.23 L141.844,20.23 Z M154.066,20.23 C155.777368,20.3392163 157.395302,19.4405812 158.207,17.93 L158.207,19.98 L161.225,19.98 L161.225,6.91 L158.207,6.91 L158.207,14.68 C158.269533,15.5127602 157.9719,16.3323478 157.389575,16.9309278 C156.807251,17.5295078 155.996166,17.8495876 155.162,17.81 C153.416,17.81 152.593,16.91 152.593,14.93 L152.593,6.91 L149.575,6.91 L149.575,15.28 C149.576,18.76 151.496,20.23 154.062,20.23 L154.066,20.23 Z M164.793,19.98 L167.811,19.98 L167.811,12.16 C167.749093,11.3701459 168.026645,10.5913284 168.574129,10.018647 C169.121612,9.4459656 169.887161,9.13367273 170.679,9.16 C172.151,9.16 172.999,9.98 172.999,11.91 L172.999,19.98 L176.017,19.98 L176.017,12.16 C175.955093,11.3701459 176.232645,10.5913284 176.780129,10.018647 C177.327612,9.4459656 178.093161,9.13367273 178.885,9.16 C180.385,9.16 181.205,9.98 181.205,11.91 L181.205,19.98 L184.223,19.98 L184.223,11.71 C184.223,8.11 182.278,6.63 179.883,6.63 C178.104633,6.59990088 176.436179,7.48797967 175.468,8.98 C174.890207,7.46867984 173.390843,6.51405907 171.777,6.63 C170.130901,6.58160965 168.5975,7.4631409 167.811,8.91 L167.811,6.91 L164.792,6.91 L164.792,19.98 L164.793,19.98 Z M189.487,20.16 C190.013097,20.174606 190.522678,19.975496 190.899509,19.6080858 C191.27634,19.2406756 191.488285,18.7362986 191.487,18.21 C191.487,17.1148193 190.599181,16.227 189.504,16.227 C188.408819,16.227 187.521,17.1148193 187.521,18.21 C187.518273,18.7306125 187.724911,19.2304739 188.094452,19.5971944 C188.463994,19.9639149 188.965424,20.1667162 189.486,20.16 L189.487,20.16 Z M199.987,20.23 C203.529,20.23 205.799,18.11 206.024,15.11 L203.255,15.11 C203.210413,15.8984234 202.853987,16.6367155 202.26435,17.1620042 C201.674714,17.6872929 200.900318,17.9564148 200.112,17.91 C197.892,17.91 196.495,16.41 196.495,13.56 L196.495,13.36 C196.495,10.66 197.967,9.06 200.037,9.06 C200.764623,8.97456265 201.495582,9.18993446 202.060635,9.65624942 C202.625688,10.1225644 202.975833,10.7993836 203.03,11.53 L205.949,11.53 C205.6,7.93 202.881,6.63 199.987,6.63 C198.193217,6.58646849 196.462651,7.29350531 195.212526,8.58064942 C193.962402,9.86779353 193.306154,11.6182509 193.402,13.41 L193.402,13.61 C193.29136,15.3911754 193.948278,17.1345478 195.206838,18.3997967 C196.465398,19.6650456 198.205263,20.3311962 199.987,20.23 Z M214.455,17.88 C212.16,17.88 210.838,16.21 210.838,13.53 L210.838,13.33 C210.838,10.63 212.21,9.01 214.455,9.01 C216.7,9.01 218.047,10.66 218.047,13.36 L218.047,13.53 C218.047,16.21 216.7,17.88 214.455,17.88 Z M214.43,20.23 C216.235555,20.3130941 217.992537,19.6314703 219.269657,18.3524472 C220.546776,17.0734242 221.225783,15.3154297 221.14,13.51 L221.14,13.31 C221.192597,10.8740467 219.918631,8.60155909 217.813079,7.37547354 C215.707527,6.149388 213.102338,6.16300227 211.009716,7.41102677 C208.917093,8.65905126 207.666947,10.9447294 207.745,13.38 L207.745,13.58 C207.673144,15.3709053 208.355562,17.1098766 209.626265,18.373926 C210.896967,19.6379754 212.639497,20.3112564 214.43,20.23 Z M5.53,49.63 L8.049,49.63 L8.049,44.68 L12.613,44.68 L12.613,42.33 L8.049,42.33 L8.049,37.38 L5.53,37.38 L5.53,42.33 L0.99,42.33 L0.99,44.68 L5.53,44.68 L5.53,49.63 Z M21.094,52.28 C25.185,52.28 27.779,50.23 27.779,46.93 C27.8948052,44.8249838 26.4146969,42.9673231 24.337,42.61 C26.0730701,42.1148896 27.2598273,40.515044 27.23,38.71 C27.23,36.06 25.06,33.91 21.344,33.91 C17.527,33.91 15.208,36.28 15.033,39.38 L17.976,39.38 C18.0199649,38.5470231 18.3955414,37.7663072 19.0189205,37.2120672 C19.6422996,36.6578272 20.4616011,36.3761892 21.294,36.43 C22.011041,36.335917 22.7330449,36.5631655 23.2669368,37.0509757 C23.8008287,37.5387859 24.0921511,38.2374008 24.063,38.96 C24.063,40.63 23.14,41.58 21.094,41.58 L19.822,41.58 L19.822,43.96 L21.194,43.96 C23.364,43.96 24.412,44.93 24.412,46.88 C24.412,48.66 23.339,49.78 21.019,49.78 C20.09474,49.8729773 19.1742926,49.570536 18.4853082,48.9474776 C17.7963237,48.3244192 17.4031395,47.4389248 17.403,46.51 L14.385,46.51 C14.529,49.93 16.849,52.28 21.089,52.28 L21.094,52.28 Z M33.367,52.03 L36.709,52.03 L36.709,34.16 L33.741,34.16 L29.6,37.11 L29.6,40.03 L33.367,37.46 L33.367,52.03 Z M50.503,55.73 L53.147,55.73 C48.0923181,48.8780054 48.0923181,39.5319946 53.147,32.68 L50.503,32.68 C44.9800694,39.3701595 44.9779724,49.037445 50.498,55.73 L50.503,55.73 Z M62.376,49.63 C59.707,49.63 58.161,47.58 58.161,43.53 L58.161,42.63 C58.161,38.66 59.632,36.51 62.326,36.51 C64.995,36.51 66.442,38.81 66.442,42.61 L66.442,43.48 C66.437,47.53 65.115,49.63 62.371,49.63 L62.376,49.63 Z M62.301,52.28 C66.966,52.28 69.759,48.86 69.759,43.48 L69.759,42.58 C69.759,37.21 66.816,33.91 62.301,33.91 C57.811,33.91 54.818,37.23 54.818,42.66 L54.818,43.56 C54.813,48.93 57.762,52.28 62.296,52.28 L62.301,52.28 Z M71.456,55.68 L74.075,55.68 C79.5948981,48.9880748 79.5948981,39.3219252 74.075,32.63 L71.456,32.63 C76.4757942,39.4940338 76.4737716,48.8181447 71.451,55.68 L71.456,55.68 Z M79.762,52.03 L92.662,52.03 L92.662,49.46 L85.079,49.46 L89.045,45.58 C91.165,43.53 92.537,41.51 92.537,39.18 C92.537,36.03 90.337,33.91 86.65,33.91 C82.884,33.91 80.539,36.16 80.315,40.06 L83.358,40.06 C83.658,37.53 84.78,36.51 86.551,36.51 C87.2858166,36.4457785 88.0108401,36.7135943 88.5274554,37.2400812 C89.0440708,37.7665682 89.298117,38.4965304 89.22,39.23 C89.22,40.93 88.197,42.51 86.501,44.31 L79.766,51.43 L79.766,52.03 L79.762,52.03 Z M102.511,49.63 C99.842,49.63 98.295,47.58 98.295,43.53 L98.295,42.63 C98.295,38.66 99.767,36.51 102.461,36.51 C105.13,36.51 106.576,38.81 106.576,42.61 L106.576,43.48 C106.571,47.53 105.25,49.63 102.506,49.63 L102.511,49.63 Z M102.436,52.28 C107.1,52.28 109.894,48.86 109.894,43.48 L109.894,42.58 C109.894,37.21 106.951,33.91 102.436,33.91 C97.946,33.91 94.953,37.23 94.953,42.66 L94.953,43.56 C94.948,48.93 97.891,52.28 102.431,52.28 L102.436,52.28 Z M126.706,52.03 L129.924,52.03 L129.924,48.41 L132.318,48.41 L132.318,45.93 L129.924,45.93 L129.924,34.16 L125.758,34.16 L117.876,47.23 L117.876,48.41 L126.706,48.41 L126.706,52.03 Z M121.418,45.93 L126.756,36.68 L126.756,45.93 L121.418,45.93 Z M142.695,52.03 L145.913,52.03 L145.913,48.41 L148.307,48.41 L148.307,45.93 L145.913,45.93 L145.913,34.16 L141.742,34.16 L133.86,47.23 L133.86,48.41 L142.69,48.41 L142.69,52.03 L142.695,52.03 Z M137.407,45.93 L142.745,36.68 L142.745,45.93 L137.402,45.93 L137.407,45.93 Z M162.6,52.28 C166.691,52.28 169.285,50.23 169.285,46.93 C169.400805,44.8249838 167.920697,42.9673231 165.843,42.61 C167.57907,42.1148896 168.765827,40.515044 168.736,38.71 C168.736,36.06 166.566,33.91 162.85,33.91 C159.033,33.91 156.714,36.28 156.539,39.38 L159.482,39.38 C159.525965,38.5470231 159.901541,37.7663072 160.524921,37.2120672 C161.1483,36.6578272 161.967601,36.3761892 162.8,36.43 C163.516955,36.3358767 164.238885,36.5631451 164.77263,37.0509973 C165.306375,37.5388495 165.597459,38.2374935 165.568,38.96 C165.568,40.63 164.646,41.58 162.6,41.58 L161.328,41.58 L161.328,43.96 L162.7,43.96 C164.87,43.96 165.918,44.93 165.918,46.88 C165.918,48.66 164.845,49.78 162.525,49.78 C161.60074,49.8729773 160.680293,49.570536 159.991308,48.9474776 C159.302324,48.3244192 158.909139,47.4389248 158.909,46.51 L155.891,46.51 C156.035,49.93 158.355,52.28 162.595,52.28 L162.6,52.28 Z M179.387,49.63 C176.718,49.63 175.172,47.58 175.172,43.53 L175.172,42.63 C175.172,38.66 176.644,36.51 179.337,36.51 C182.006,36.51 183.453,38.81 183.453,42.61 L183.453,43.48 C183.448,47.53 182.126,49.63 179.382,49.63 L179.387,49.63 Z M179.312,52.28 C183.977,52.28 186.77,48.86 186.77,43.48 L186.77,42.58 C186.77,37.21 183.827,33.91 179.312,33.91 C174.823,33.91 171.83,37.23 171.83,42.66 L171.83,43.56 C171.825,48.93 174.768,52.28 179.307,52.28 L179.312,52.28 Z M201.238,52.28 C205.079,52.28 207.798,49.91 207.798,46.13 C207.798,42.38 205.528,40.13 202.311,40.13 C200.872582,40.0439889 199.468628,40.5921231 198.469,41.63 L198.494,36.78 L206.775,36.78 L206.775,34.16 L195.945,34.16 L195.795,44.11 L197.495,44.11 C198.421529,43.0378584 199.798253,42.4637607 201.212,42.56 C203.183,42.56 204.43,43.93 204.43,46.08 C204.43,48.28 203.257,49.71 201.212,49.71 C198.912,49.71 198.244,48.56 197.969,46.91 L194.872,46.91 C195.072,49.98 197.043,52.28 201.233,52.28 L201.238,52.28 Z M216.18,52.28 C220.021,52.28 222.74,49.91 222.74,46.13 C222.74,42.38 220.47,40.13 217.252,40.13 C215.813837,40.0437411 214.410089,40.5919375 213.411,41.63 L213.436,36.78 L221.717,36.78 L221.717,34.16 L210.887,34.16 L210.737,44.11 L212.437,44.11 C213.36334,43.0375971 214.7402,42.4634424 216.154,42.56 C218.124,42.56 219.371,43.93 219.371,46.08 C219.371,48.28 218.199,49.71 216.154,49.71 C213.854,49.71 213.185,48.56 212.911,46.91 L209.818,46.91 C210.014,49.98 211.984,52.28 216.175,52.28 L216.18,52.28 Z M237.506,52.28 C241.597,52.28 244.191,50.23 244.191,46.93 C244.306805,44.8249838 242.826697,42.9673231 240.749,42.61 C242.48507,42.1148896 243.671827,40.515044 243.642,38.71 C243.642,36.06 241.472,33.91 237.756,33.91 C233.939,33.91 231.62,36.28 231.445,39.38 L234.388,39.38 C234.431965,38.5470231 234.807541,37.7663072 235.430921,37.2120672 C236.0543,36.6578272 236.873601,36.3761892 237.706,36.43 C238.423041,36.335917 239.145045,36.5631655 239.678937,37.0509757 C240.212829,37.5387859 240.504151,38.2374008 240.475,38.96 C240.475,40.63 239.552,41.58 237.506,41.58 L236.234,41.58 L236.234,43.96 L237.606,43.96 C239.776,43.96 240.824,44.93 240.824,46.88 C240.824,48.66 239.751,49.78 237.431,49.78 C236.50674,49.8729773 235.586293,49.570536 234.897308,48.9474776 C234.208324,48.3244192 233.815139,47.4389248 233.815,46.51 L230.792,46.51 C230.941,49.93 233.262,52.28 237.501,52.28 L237.506,52.28 Z M252.922,52.28 C257.012,52.28 259.607,50.23 259.607,46.93 C259.722736,44.824661 258.242097,42.966874 256.164,42.61 C257.900258,42.1149618 259.087354,40.5152131 259.058,38.71 C259.058,36.06 256.888,33.91 253.171,33.91 C249.355,33.91 247.035,36.28 246.861,39.38 L249.804,39.38 C249.847707,38.5471103 250.223066,37.7663925 250.846287,37.2121261 C251.469508,36.6578597 252.288702,36.3761921 253.121,36.43 C253.838041,36.335917 254.560045,36.5631655 255.093937,37.0509757 C255.627829,37.5387859 255.919151,38.2374008 255.89,38.96 C255.89,40.63 254.967,41.58 252.922,41.58 L251.65,41.58 L251.65,43.96 L253.022,43.96 C255.192,43.96 256.239,44.93 256.239,46.88 C256.239,48.66 255.167,49.78 252.847,49.78 C251.922647,49.8729581 251.00211,49.5705417 250.312973,48.9475176 C249.623836,48.3244935 249.230423,47.4390149 249.23,46.51 L246.212,46.51 C246.362,49.93 248.676,52.28 252.917,52.28 L252.922,52.28 Z" id="contact_hello_dim-sum.co_31_0_20_44_30_55_33"></path>
        </g>
    </g>
</svg>