<?xml version="1.0" encoding="UTF-8"?>
<svg width="227px" height="56px" viewBox="0 0 227 56" version="1.1" xmlns="http://www.w3.org/2000/svg" xmlns:xlink="http://www.w3.org/1999/xlink">
    <!-- Generator: Sketch 51.2 (57519) - http://www.bohemiancoding.com/sketch -->
    <title>hello@dim-sum.co +31</title>
    <desc>Created with Sketch.</desc>
    <defs></defs>
    <g id="Page-1" stroke="none" stroke-width="1" fill="none" fill-rule="evenodd">
        <g id="text-contact-white" transform="translate(-1.000000, 50.000000)" fill="#979797">
            <path d="M8.937,-43.906 C10.4490076,-43.906 11.5919961,-43.4830042 12.366,-42.637 C13.1400039,-41.7909958 13.527,-40.5490082 13.527,-38.911 L13.527,-31 L10.584,-31 L10.584,-37.561 C10.584,-38.9290068 10.3770021,-39.909997 9.963,-40.504 C9.54899793,-41.098003 8.83800504,-41.395 7.83,-41.395 C6.87599523,-41.395 6.13800261,-41.093503 5.616,-40.4905 C5.09399739,-39.887497 4.833,-39.0280056 4.833,-37.912 L4.833,-31 L1.89,-31 L1.89,-49.9 L4.833,-49.9 L4.833,-41.827 C5.22900198,-42.4930033 5.77799649,-43.0059982 6.48,-43.366 C7.18200351,-43.7260018 8.00099532,-43.906 8.937,-43.906 Z M28.566,-37.939 C28.566,-37.6149984 28.5390003,-37.0750038 28.485,-36.319 L19.143,-36.319 C19.1790002,-35.3289951 19.5029969,-34.5685027 20.115,-34.0375 C20.7270031,-33.5064973 21.5729946,-33.241 22.653,-33.241 C23.3730036,-33.241 23.9579978,-33.3579988 24.408,-33.592 C24.8580022,-33.8260012 25.2089987,-34.1859976 25.461,-34.672 L28.431,-34.672 C28.232999,-33.5019942 27.5985054,-32.5435037 26.5275,-31.7965 C25.4564946,-31.0494963 24.1650076,-30.676 22.653,-30.676 C20.6729901,-30.676 19.1070058,-31.2699941 17.955,-32.458 C16.8029942,-33.6460059 16.227,-35.2569898 16.227,-37.291 C16.227,-38.6230067 16.4879974,-39.788495 17.01,-40.7875 C17.5320026,-41.786505 18.2699952,-42.5559973 19.224,-43.096 C20.1780048,-43.6360027 21.2849937,-43.906 22.545,-43.906 C23.7330059,-43.906 24.7814955,-43.6540025 25.6905,-43.15 C26.5995045,-42.6459975 27.3059975,-41.9440045 27.81,-41.044 C28.3140025,-40.1439955 28.566,-39.1090059 28.566,-37.939 Z M25.677,-38.56 C25.6589999,-39.5320049 25.3755027,-40.2789974 24.8265,-40.801 C24.2774973,-41.3230026 23.499005,-41.584 22.491,-41.584 C21.4649949,-41.584 20.655003,-41.3050028 20.061,-40.747 C19.466997,-40.1889972 19.1610001,-39.4600045 19.143,-38.56 L25.677,-38.56 Z M31.401,-49.9 L34.344,-49.9 L34.344,-31 L31.401,-31 L31.401,-49.9 Z M38.124,-49.9 L41.067,-49.9 L41.067,-31 L38.124,-31 L38.124,-49.9 Z M50.544,-30.676 C49.1939933,-30.676 48.015005,-30.9639971 47.007,-31.54 C45.998995,-32.1160029 45.2295027,-32.907995 44.6985,-33.916 C44.1674973,-34.924005 43.902,-36.0489938 43.902,-37.291 C43.902,-38.5330062 44.1674973,-39.657995 44.6985,-40.666 C45.2295027,-41.674005 45.998995,-42.4659971 47.007,-43.042 C48.015005,-43.6180029 49.1939933,-43.906 50.544,-43.906 C51.8940068,-43.906 53.072995,-43.6180029 54.081,-43.042 C55.089005,-42.4659971 55.8584973,-41.674005 56.3895,-40.666 C56.9205027,-39.657995 57.186,-38.5330062 57.186,-37.291 C57.186,-36.0489938 56.9205027,-34.924005 56.3895,-33.916 C55.8584973,-32.907995 55.089005,-32.1160029 54.081,-31.54 C53.072995,-30.9639971 51.8940068,-30.676 50.544,-30.676 Z M50.544,-33.295 C51.6960058,-33.295 52.6004967,-33.6639963 53.2575,-34.402 C53.9145033,-35.1400037 54.243,-36.1029941 54.243,-37.291 C54.243,-38.4790059 53.9145033,-39.4419963 53.2575,-40.18 C52.6004967,-40.9180037 51.6960058,-41.287 50.544,-41.287 C49.3919942,-41.287 48.4875033,-40.9180037 47.8305,-40.18 C47.1734967,-39.4419963 46.845,-38.4790059 46.845,-37.291 C46.845,-36.1029941 47.1734967,-35.1400037 47.8305,-34.402 C48.4875033,-33.6639963 49.3919942,-33.295 50.544,-33.295 Z M70.47,-25.789 C68.0579879,-25.789 65.9925086,-26.2749951 64.2735,-27.247 C62.5544914,-28.2190049 61.2585044,-29.5509915 60.3855,-31.243 C59.5124956,-32.9350085 59.076,-34.8339895 59.076,-36.94 C59.076,-39.1540111 59.5349954,-41.0799918 60.453,-42.718 C61.3710046,-44.3560082 62.6669916,-45.6204955 64.341,-46.5115 C66.0150084,-47.4025045 67.9589889,-47.848 70.173,-47.848 C72.3510109,-47.848 74.2544919,-47.447504 75.8835,-46.6465 C77.5125081,-45.845496 78.7814955,-44.6350081 79.6905,-43.015 C80.5995045,-41.3949919 81.054,-39.388012 81.054,-36.994 C81.054,-34.7259887 80.653504,-33.0205057 79.8525,-31.8775 C79.051496,-30.7344943 77.8950076,-30.163 76.383,-30.163 C74.2949896,-30.163 73.0080024,-31.1079906 72.522,-32.998 C72.1979984,-32.4759974 71.739003,-32.0620015 71.145,-31.756 C70.550997,-31.4499985 69.8490041,-31.297 69.039,-31.297 C68.030995,-31.297 67.131004,-31.5489975 66.339,-32.053 C65.546996,-32.5570025 64.9305022,-33.2274958 64.4895,-34.0645 C64.0484978,-34.9015042 63.828,-35.8149951 63.828,-36.805 C63.828,-37.813005 64.0529978,-38.7444957 64.503,-39.5995 C64.9530022,-40.4545043 65.578496,-41.1339975 66.3795,-41.638 C67.180504,-42.1420025 68.084995,-42.394 69.093,-42.394 C69.8490038,-42.394 70.523997,-42.2500014 71.118,-41.962 C71.712003,-41.6739986 72.1799983,-41.2510028 72.522,-40.693 L72.522,-42.124 L74.979,-42.124 L74.979,-34.807 C74.979,-33.8889954 75.0959988,-33.2095022 75.33,-32.7685 C75.5640012,-32.3274978 75.9509973,-32.107 76.491,-32.107 C77.1030031,-32.107 77.6294978,-32.4309968 78.0705,-33.079 C78.5115022,-33.7270032 78.732,-34.9419911 78.732,-36.724 C78.732,-42.7720302 75.8700286,-45.796 70.146,-45.796 C68.3639911,-45.796 66.8160066,-45.4315036 65.502,-44.7025 C64.1879934,-43.9734964 63.1755036,-42.9385067 62.4645,-41.5975 C61.7534964,-40.2564933 61.398,-38.686009 61.398,-36.886 C61.398,-35.1399913 61.7444965,-33.5875068 62.4375,-32.2285 C63.1305035,-30.8694932 64.1609932,-29.8075038 65.529,-29.0425 C66.8970068,-28.2774962 68.5619902,-27.895 70.524,-27.895 C71.3520041,-27.895 72.1529961,-27.9759992 72.927,-28.138 C73.7010039,-28.3000008 74.5109958,-28.5879979 75.357,-29.002 L76.248,-27.058 C75.2579951,-26.5899977 74.2995046,-26.2615009 73.3725,-26.0725 C72.4454954,-25.8834991 71.478005,-25.789 70.47,-25.789 Z M69.39,-33.511 C70.3080046,-33.511 71.0594971,-33.8304968 71.6445,-34.4695 C72.2295029,-35.1085032 72.522,-35.8959953 72.522,-36.832 C72.522,-37.7680047 72.2295029,-38.5599968 71.6445,-39.208 C71.0594971,-39.8560032 70.3080046,-40.18 69.39,-40.18 C68.4719954,-40.18 67.7295028,-39.8560032 67.1625,-39.208 C66.5954972,-38.5599968 66.312,-37.7680047 66.312,-36.832 C66.312,-35.8959953 66.5954972,-35.1085032 67.1625,-34.4695 C67.7295028,-33.8304968 68.4719954,-33.511 69.39,-33.511 Z M96.093,-49.9 L96.093,-31 L93.15,-31 L93.15,-32.701 C92.7899982,-32.0889969 92.2275038,-31.5985018 91.4625,-31.2295 C90.6974962,-30.8604982 89.919004,-30.676 89.127,-30.676 C87.8129934,-30.676 86.6925046,-30.9639971 85.7655,-31.54 C84.8384954,-32.1160029 84.1365024,-32.903495 83.6595,-33.9025 C83.1824976,-34.901505 82.944,-36.0309937 82.944,-37.291 C82.944,-38.5330062 83.1959975,-39.653495 83.7,-40.6525 C84.2040025,-41.651505 84.9284953,-42.4434971 85.8735,-43.0285 C86.8185047,-43.6135029 87.9299936,-43.906 89.208,-43.906 C90.0540042,-43.906 90.8279965,-43.7260018 91.53,-43.366 C92.2320035,-43.0059982 92.7719981,-42.5110032 93.15,-41.881 L93.15,-49.9 L96.093,-49.9 Z M89.559,-33.295 C90.765006,-33.295 91.6874968,-33.6729962 92.3265,-34.429 C92.9655032,-35.1850038 93.285,-36.1389942 93.285,-37.291 C93.285,-38.4430058 92.9655032,-39.3969962 92.3265,-40.153 C91.6874968,-40.9090038 90.765006,-41.287 89.559,-41.287 C88.4249943,-41.287 87.5295033,-40.9135037 86.8725,-40.1665 C86.2154967,-39.4194963 85.887,-38.4610058 85.887,-37.291 C85.887,-36.1209942 86.2154967,-35.1625037 86.8725,-34.4155 C87.5295033,-33.6684963 88.4249943,-33.295 89.559,-33.295 Z M99.873,-43.582 L102.816,-43.582 L102.816,-31 L99.873,-31 L99.873,-43.582 Z M101.358,-45.391 C100.727997,-45.391 100.206002,-45.6024979 99.792,-46.0255 C99.3779979,-46.4485021 99.171,-46.9659969 99.171,-47.578 C99.171,-48.1900031 99.3779979,-48.7074979 99.792,-49.1305 C100.206002,-49.5535021 100.727997,-49.765 101.358,-49.765 C101.988003,-49.765 102.509998,-49.5535021 102.924,-49.1305 C103.338002,-48.7074979 103.545,-48.1900031 103.545,-47.578 C103.545,-46.9659969 103.338002,-46.4485021 102.924,-46.0255 C102.509998,-45.6024979 101.988003,-45.391 101.358,-45.391 Z M106.596,-43.582 L109.539,-43.582 L109.539,-41.827 C109.827001,-42.4390031 110.285997,-42.9384981 110.916,-43.3255 C111.546003,-43.7125019 112.256996,-43.906 113.049,-43.906 C115.04701,-43.906 116.369997,-43.1590075 117.018,-41.665 C117.324002,-42.3130032 117.827996,-42.8484979 118.53,-43.2715 C119.232004,-43.6945021 120.014996,-43.906 120.879,-43.906 C123.903015,-43.906 125.415,-42.2590165 125.415,-38.965 L125.415,-31 L122.472,-31 L122.472,-38.398 C122.472,-39.4240051 122.274002,-40.1799976 121.878,-40.666 C121.481998,-41.1520024 120.897004,-41.395 120.123,-41.395 C119.294996,-41.395 118.647002,-41.1205027 118.179,-40.5715 C117.710998,-40.0224973 117.477,-39.0550069 117.477,-37.669 L117.477,-31 L114.534,-31 L114.534,-38.425 C114.534,-39.4510051 114.345002,-40.2024976 113.967,-40.6795 C113.588998,-41.1565024 113.013004,-41.395 112.239,-41.395 C111.392996,-41.395 110.731502,-41.1205027 110.2545,-40.5715 C109.777498,-40.0224973 109.539,-39.0550069 109.539,-37.669 L109.539,-31 L106.596,-31 L106.596,-43.582 Z M128.52,-39.451 L136.863,-39.451 L136.863,-36.832 L128.52,-36.832 L128.52,-39.451 Z M144.504,-30.676 C143.459995,-30.676 142.528504,-30.8649981 141.7095,-31.243 C140.890496,-31.6210019 140.260502,-32.1249969 139.8195,-32.755 C139.378498,-33.3850032 139.158,-34.0869961 139.158,-34.861 L142.101,-34.861 C142.101,-34.3209973 142.339498,-33.8800017 142.8165,-33.538 C143.293502,-33.1959983 143.909996,-33.025 144.666,-33.025 C145.224003,-33.025 145.664998,-33.1599986 145.989,-33.43 C146.313002,-33.7000014 146.475,-34.0599978 146.475,-34.51 C146.475,-35.2300036 146.160003,-35.6709992 145.53,-35.833 L142.29,-36.724 C141.389995,-36.9760013 140.710502,-37.403497 140.2515,-38.0065 C139.792498,-38.609503 139.563,-39.3429957 139.563,-40.207 C139.563,-40.8910034 139.765498,-41.5164972 140.1705,-42.0835 C140.575502,-42.6505028 141.142496,-43.0959984 141.8715,-43.42 C142.600504,-43.7440016 143.441995,-43.906 144.396,-43.906 C145.998008,-43.906 147.226496,-43.5460036 148.0815,-42.826 C148.936504,-42.1059964 149.364,-41.1610059 149.364,-39.991 L146.475,-39.991 C146.475,-40.5130026 146.281502,-40.9224985 145.8945,-41.2195 C145.507498,-41.5165015 144.972003,-41.665 144.288,-41.665 C143.765997,-41.665 143.334002,-41.5435012 142.992,-41.3005 C142.649998,-41.0574988 142.479,-40.7470019 142.479,-40.369 C142.479,-40.0269983 142.573499,-39.7390012 142.7625,-39.505 C142.951501,-39.2709988 143.216998,-39.1090004 143.559,-39.019 L146.556,-38.155 C147.420004,-37.9029987 148.121997,-37.475503 148.662,-36.8725 C149.202003,-36.269497 149.472,-35.572004 149.472,-34.78 C149.472,-33.5559939 149.035504,-32.5660038 148.1625,-31.81 C147.289496,-31.0539962 146.070008,-30.676 144.504,-30.676 Z M156.978,-30.676 C155.555993,-30.676 154.422004,-31.0989958 153.576,-31.945 C152.729996,-32.7910042 152.307,-34.0329918 152.307,-35.671 L152.307,-43.582 L155.25,-43.582 L155.25,-36.4 C155.25,-35.3379947 155.447998,-34.5370027 155.844,-33.997 C156.240002,-33.4569973 156.896995,-33.187 157.815,-33.187 C158.877005,-33.187 159.650998,-33.488497 160.137,-34.0915 C160.623002,-34.694503 160.866,-35.4909951 160.866,-36.481 L160.866,-43.582 L163.809,-43.582 L163.809,-31 L160.866,-31 L160.866,-32.755 C160.091996,-31.3689931 158.796009,-30.676 156.978,-30.676 Z M167.589,-43.582 L170.532,-43.582 L170.532,-41.827 C170.820001,-42.4390031 171.278997,-42.9384981 171.909,-43.3255 C172.539003,-43.7125019 173.249996,-43.906 174.042,-43.906 C176.04001,-43.906 177.362997,-43.1590075 178.011,-41.665 C178.317002,-42.3130032 178.820996,-42.8484979 179.523,-43.2715 C180.225004,-43.6945021 181.007996,-43.906 181.872,-43.906 C184.896015,-43.906 186.408,-42.2590165 186.408,-38.965 L186.408,-31 L183.465,-31 L183.465,-38.398 C183.465,-39.4240051 183.267002,-40.1799976 182.871,-40.666 C182.474998,-41.1520024 181.890004,-41.395 181.116,-41.395 C180.287996,-41.395 179.640002,-41.1205027 179.172,-40.5715 C178.703998,-40.0224973 178.47,-39.0550069 178.47,-37.669 L178.47,-31 L175.527,-31 L175.527,-38.425 C175.527,-39.4510051 175.338002,-40.2024976 174.96,-40.6795 C174.581998,-41.1565024 174.006004,-41.395 173.232,-41.395 C172.385996,-41.395 171.724502,-41.1205027 171.2475,-40.5715 C170.770498,-40.0224973 170.532,-39.0550069 170.532,-37.669 L170.532,-31 L167.589,-31 L167.589,-43.582 Z M192.051,-30.784 C191.420997,-30.784 190.885502,-31.0089977 190.4445,-31.459 C190.003498,-31.9090023 189.783,-32.4489969 189.783,-33.079 C189.783,-33.7090032 190.003498,-34.2444978 190.4445,-34.6855 C190.885502,-35.1265022 191.420997,-35.347 192.051,-35.347 C192.681003,-35.347 193.220998,-35.1265022 193.671,-34.6855 C194.121002,-34.2444978 194.346,-33.7090032 194.346,-33.079 C194.346,-32.4489969 194.121002,-31.9090023 193.671,-31.459 C193.220998,-31.0089977 192.681003,-30.784 192.051,-30.784 Z M202.635,-30.676 C201.356994,-30.676 200.245505,-30.9549972 199.3005,-31.513 C198.355495,-32.0710028 197.631003,-32.849495 197.127,-33.8485 C196.622997,-34.847505 196.371,-35.9949935 196.371,-37.291 C196.371,-38.5870065 196.622997,-39.734495 197.127,-40.7335 C197.631003,-41.732505 198.355495,-42.5109972 199.3005,-43.069 C200.245505,-43.6270028 201.356994,-43.906 202.635,-43.906 C204.363009,-43.906 205.753495,-43.4695044 206.8065,-42.5965 C207.859505,-41.7234956 208.457999,-40.5580073 208.602,-39.1 L205.659,-39.1 C205.496999,-39.8380037 205.173002,-40.3869982 204.687,-40.747 C204.200998,-41.1070018 203.517004,-41.287 202.635,-41.287 C201.590995,-41.287 200.776503,-40.9405035 200.1915,-40.2475 C199.606497,-39.5544965 199.314,-38.5690064 199.314,-37.291 C199.314,-36.0129936 199.606497,-35.0275035 200.1915,-34.3345 C200.776503,-33.6414965 201.590995,-33.295 202.635,-33.295 C204.309008,-33.295 205.316998,-33.9789932 205.659,-35.347 L208.602,-35.347 C208.457999,-33.9249929 207.859505,-32.7910042 206.8065,-31.945 C205.753495,-31.0989958 204.363009,-30.676 202.635,-30.676 Z M217.404,-30.676 C216.053993,-30.676 214.875005,-30.9639971 213.867,-31.54 C212.858995,-32.1160029 212.089503,-32.907995 211.5585,-33.916 C211.027497,-34.924005 210.762,-36.0489938 210.762,-37.291 C210.762,-38.5330062 211.027497,-39.657995 211.5585,-40.666 C212.089503,-41.674005 212.858995,-42.4659971 213.867,-43.042 C214.875005,-43.6180029 216.053993,-43.906 217.404,-43.906 C218.754007,-43.906 219.932995,-43.6180029 220.941,-43.042 C221.949005,-42.4659971 222.718497,-41.674005 223.2495,-40.666 C223.780503,-39.657995 224.046,-38.5330062 224.046,-37.291 C224.046,-36.0489938 223.780503,-34.924005 223.2495,-33.916 C222.718497,-32.907995 221.949005,-32.1160029 220.941,-31.54 C219.932995,-30.9639971 218.754007,-30.676 217.404,-30.676 Z M217.404,-33.295 C218.556006,-33.295 219.460497,-33.6639963 220.1175,-34.402 C220.774503,-35.1400037 221.103,-36.1029941 221.103,-37.291 C221.103,-38.4790059 220.774503,-39.4419963 220.1175,-40.18 C219.460497,-40.9180037 218.556006,-41.287 217.404,-41.287 C216.251994,-41.287 215.347503,-40.9180037 214.6905,-40.18 C214.033497,-39.4419963 213.705,-38.4790059 213.705,-37.291 C213.705,-36.1029941 214.033497,-35.1400037 214.6905,-34.402 C215.347503,-33.6639963 216.251994,-33.295 217.404,-33.295 Z M5.4,-7.182 L1.35,-7.182 L1.35,-9.801 L5.4,-9.801 L5.4,-13.959 L8.208,-13.959 L8.208,-9.801 L12.258,-9.801 L12.258,-7.182 L8.208,-7.182 L8.208,-3.051 L5.4,-3.051 L5.4,-7.182 Z M21.357,0.324 C19.2149893,0.324 17.545506,-0.24299433 16.3485,-1.377 C15.151494,-2.51100567 14.553,-4.09498983 14.553,-6.129 L17.712,-6.129 C17.712,-4.90499388 18.0269969,-3.96000333 18.657,-3.294 C19.2870032,-2.62799667 20.1869942,-2.295 21.357,-2.295 C22.3110048,-2.295 23.084997,-2.5649973 23.679,-3.105 C24.273003,-3.6450027 24.57,-4.35599559 24.57,-5.238 C24.57,-7.25401008 23.4180115,-8.262 21.114,-8.262 L19.818,-8.262 L19.818,-10.935 L21.141,-10.935 C23.1030098,-10.935 24.084,-11.834991 24.084,-13.635 C24.084,-14.3730037 23.8185027,-14.9714977 23.2875,-15.4305 C22.7564973,-15.8895023 22.0770041,-16.119 21.249,-16.119 C20.2589951,-16.119 19.4805028,-15.8355028 18.9135,-15.2685 C18.3464972,-14.7014972 18.063,-13.9230049 18.063,-12.933 L15.012,-12.933 C15.012,-14.6970088 15.5744944,-16.0964948 16.6995,-17.1315 C17.8245056,-18.1665052 19.3409905,-18.684 21.249,-18.684 C22.4370059,-18.684 23.4854955,-18.4725021 24.3945,-18.0495 C25.3035045,-17.6264979 26.0054975,-17.0325038 26.5005,-16.2675 C26.9955025,-15.5024962 27.243,-14.6250049 27.243,-13.635 C27.243,-12.6629951 26.9775027,-11.8395034 26.4465,-11.1645 C25.9154973,-10.4894966 25.146005,-9.99000162 24.138,-9.666 C25.2180054,-9.46799901 26.0819968,-8.97300396 26.73,-8.181 C27.3780032,-7.38899604 27.702,-6.41700576 27.702,-5.265 C27.702,-4.1849946 27.4320027,-3.22200423 26.892,-2.376 C26.3519973,-1.52999577 25.6005048,-0.868502385 24.6375,-0.3915 C23.6744952,0.085502385 22.5810061,0.324 21.357,0.324 Z M33.615,-12.636 L29.727,-12.636 L29.727,-15.228 C30.8610057,-15.228 31.724997,-15.331499 32.319,-15.5385 C32.913003,-15.745501 33.3224989,-16.0694978 33.5475,-16.5105 C33.7725011,-16.9515022 33.885,-17.567996 33.885,-18.36 L36.693,-18.36 L36.693,0 L33.615,0 L33.615,-12.636 Z M53.649,5.265 C51.7949907,3.66299199 50.3280054,1.83601026 49.248,-0.216 C48.1679946,-2.26801026 47.628,-4.65298641 47.628,-7.371 C47.628,-10.0890136 48.1679946,-12.4739897 49.248,-14.526 C50.3280054,-16.5780103 51.7949907,-18.404992 53.649,-20.007 L55.458,-18.36 C53.8379919,-16.7399919 52.6185041,-15.0570087 51.7995,-13.311 C50.9804959,-11.5649913 50.571,-9.58501107 50.571,-7.371 C50.571,-5.15698893 50.9804959,-3.17700873 51.7995,-1.431 C52.6185041,0.31500873 53.8379919,1.9979919 55.458,3.618 L53.649,5.265 Z M62.505,0.324 C60.2009885,0.324 58.450506,-0.481491945 57.2535,-2.0925 C56.056494,-3.70350805 55.458,-6.06598443 55.458,-9.18 C55.458,-12.2940156 56.056494,-14.6564919 57.2535,-16.2675 C58.450506,-17.8785081 60.2009885,-18.684 62.505,-18.684 C64.8090115,-18.684 66.559494,-17.8785081 67.7565,-16.2675 C68.953506,-14.6564919 69.552,-12.2940156 69.552,-9.18 C69.552,-6.06598443 68.953506,-3.70350805 67.7565,-2.0925 C66.559494,-0.481491945 64.8090115,0.324 62.505,0.324 Z M62.505,-2.376 C63.8730068,-2.376 64.8989966,-2.93849437 65.583,-4.0635 C66.2670034,-5.18850562 66.609,-6.89398857 66.609,-9.18 C66.609,-11.4660114 66.2670034,-13.1714944 65.583,-14.2965 C64.8989966,-15.4215056 63.8730068,-15.984 62.505,-15.984 C61.1369932,-15.984 60.1110034,-15.4215056 59.427,-14.2965 C58.7429966,-13.1714944 58.401,-11.4660114 58.401,-9.18 C58.401,-6.89398857 58.7429966,-5.18850562 59.427,-4.0635 C60.1110034,-2.93849437 61.1369932,-2.376 62.505,-2.376 Z M69.552,3.618 C71.1720081,1.9979919 72.3914959,0.31500873 73.2105,-1.431 C74.0295041,-3.17700873 74.439,-5.15698893 74.439,-7.371 C74.439,-9.58501107 74.0295041,-11.5649913 73.2105,-13.311 C72.3914959,-15.0570087 71.1720081,-16.7399919 69.552,-18.36 L71.361,-20.007 C73.2150093,-18.404992 74.6819946,-16.5780103 75.762,-14.526 C76.8420054,-12.4739897 77.382,-10.0890136 77.382,-7.371 C77.382,-4.65298641 76.8420054,-2.26801026 75.762,-0.216 C74.6819946,1.83601026 73.2150093,3.66299199 71.361,5.265 L69.552,3.618 Z M80.082,7.10542736e-15 C80.082,-2.03401017 80.4419964,-3.70349347 81.162,-5.0085 C81.8820036,-6.31350653 83.0339921,-7.40699559 84.618,-8.289 L87.318,-9.774 C88.8480077,-10.6200042 89.613,-11.7809926 89.613,-13.257 C89.613,-14.0670041 89.3610025,-14.7239975 88.857,-15.228 C88.3529975,-15.7320025 87.705004,-15.984 86.913,-15.984 C85.8869949,-15.984 85.0950028,-15.6510033 84.537,-14.985 C83.9789972,-14.3189967 83.7,-13.3650062 83.7,-12.123 L80.487,-12.123 C80.487,-13.4370066 80.7479974,-14.5889951 81.27,-15.579 C81.7920026,-16.569005 82.5389951,-17.3339973 83.511,-17.874 C84.4830049,-18.4140027 85.6169935,-18.684 86.913,-18.684 C88.7670093,-18.684 90.2294946,-18.2115047 91.3005,-17.2665 C92.3715054,-16.3214953 92.907,-15.0390081 92.907,-13.419 C92.907,-12.3029944 92.5920032,-11.2500049 91.962,-10.26 C91.3319969,-9.26999505 90.4500057,-8.45100324 89.316,-7.803 L86.67,-6.291 C85.661995,-5.71499712 84.9645019,-5.19300234 84.5775,-4.725 C84.1904981,-4.25699766 83.9160008,-3.60900414 83.754,-2.781 L92.853,-2.781 L92.853,7.10542736e-15 L80.082,7.10542736e-15 Z M102.114,0.324 C99.8099885,0.324 98.059506,-0.481491945 96.8625,-2.0925 C95.665494,-3.70350805 95.067,-6.06598443 95.067,-9.18 C95.067,-12.2940156 95.665494,-14.6564919 96.8625,-16.2675 C98.059506,-17.8785081 99.8099885,-18.684 102.114,-18.684 C104.418012,-18.684 106.168494,-17.8785081 107.3655,-16.2675 C108.562506,-14.6564919 109.161,-12.2940156 109.161,-9.18 C109.161,-6.06598443 108.562506,-3.70350805 107.3655,-2.0925 C106.168494,-0.481491945 104.418012,0.324 102.114,0.324 Z M102.114,-2.376 C103.482007,-2.376 104.507997,-2.93849437 105.192,-4.0635 C105.876003,-5.18850562 106.218,-6.89398857 106.218,-9.18 C106.218,-11.4660114 105.876003,-13.1714944 105.192,-14.2965 C104.507997,-15.4215056 103.482007,-15.984 102.114,-15.984 C100.745993,-15.984 99.7200034,-15.4215056 99.036,-14.2965 C98.3519966,-13.1714944 98.01,-11.4660114 98.01,-9.18 C98.01,-6.89398857 98.3519966,-5.18850562 99.036,-4.0635 C99.7200034,-2.93849437 100.745993,-2.376 102.114,-2.376 Z M118.476,7.10542736e-15 C118.476,-2.03401017 118.835996,-3.70349347 119.556,-5.0085 C120.276004,-6.31350653 121.427992,-7.40699559 123.012,-8.289 L125.712,-9.774 C127.242008,-10.6200042 128.007,-11.7809926 128.007,-13.257 C128.007,-14.0670041 127.755003,-14.7239975 127.251,-15.228 C126.746997,-15.7320025 126.099004,-15.984 125.307,-15.984 C124.280995,-15.984 123.489003,-15.6510033 122.931,-14.985 C122.372997,-14.3189967 122.094,-13.3650062 122.094,-12.123 L118.881,-12.123 C118.881,-13.4370066 119.141997,-14.5889951 119.664,-15.579 C120.186003,-16.569005 120.932995,-17.3339973 121.905,-17.874 C122.877005,-18.4140027 124.010994,-18.684 125.307,-18.684 C127.161009,-18.684 128.623495,-18.2115047 129.6945,-17.2665 C130.765505,-16.3214953 131.301,-15.0390081 131.301,-13.419 C131.301,-12.3029944 130.986003,-11.2500049 130.356,-10.26 C129.725997,-9.26999505 128.844006,-8.45100324 127.71,-7.803 L125.064,-6.291 C124.055995,-5.71499712 123.358502,-5.19300234 122.9715,-4.725 C122.584498,-4.25699766 122.310001,-3.60900414 122.148,-2.781 L131.247,-2.781 L131.247,7.10542736e-15 L118.476,7.10542736e-15 Z M137.619,-12.636 L133.731,-12.636 L133.731,-15.228 C134.865006,-15.228 135.728997,-15.331499 136.323,-15.5385 C136.917003,-15.745501 137.326499,-16.0694978 137.5515,-16.5105 C137.776501,-16.9515022 137.889,-17.567996 137.889,-18.36 L140.697,-18.36 L140.697,0 L137.619,0 L137.619,-12.636 Z M158.544,0.324 C156.239988,0.324 154.489506,-0.481491945 153.2925,-2.0925 C152.095494,-3.70350805 151.497,-6.06598443 151.497,-9.18 C151.497,-12.2940156 152.095494,-14.6564919 153.2925,-16.2675 C154.489506,-17.8785081 156.239988,-18.684 158.544,-18.684 C160.848012,-18.684 162.598494,-17.8785081 163.7955,-16.2675 C164.992506,-14.6564919 165.591,-12.2940156 165.591,-9.18 C165.591,-6.06598443 164.992506,-3.70350805 163.7955,-2.0925 C162.598494,-0.481491945 160.848012,0.324 158.544,0.324 Z M158.544,-2.376 C159.912007,-2.376 160.937997,-2.93849437 161.622,-4.0635 C162.306003,-5.18850562 162.648,-6.89398857 162.648,-9.18 C162.648,-11.4660114 162.306003,-13.1714944 161.622,-14.2965 C160.937997,-15.4215056 159.912007,-15.984 158.544,-15.984 C157.175993,-15.984 156.150003,-15.4215056 155.466,-14.2965 C154.781997,-13.1714944 154.44,-11.4660114 154.44,-9.18 C154.44,-6.89398857 154.781997,-5.18850562 155.466,-4.0635 C156.150003,-2.93849437 157.175993,-2.376 158.544,-2.376 Z M171.639,-12.636 L167.751,-12.636 L167.751,-15.228 C168.885006,-15.228 169.748997,-15.331499 170.343,-15.5385 C170.937003,-15.745501 171.346499,-16.0694978 171.5715,-16.5105 C171.796501,-16.9515022 171.909,-17.567996 171.909,-18.36 L174.717,-18.36 L174.717,0 L171.639,0 L171.639,-12.636 Z M193.887,-15.525 L185.517,-15.525 L185.517,-18.36 L198.531,-18.36 L189.27,0 L185.841,0 L193.887,-15.525 Z M212.22,-12.069 C212.22,-10.4129917 211.761005,-8.99100594 210.843,-7.803 L205.065,7.10542736e-15 L201.366,7.10542736e-15 L205.632,-5.454 L205.578,-5.454 C204.227993,-5.454 203.049005,-5.74199712 202.041,-6.318 C201.032995,-6.89400288 200.263503,-7.68599496 199.7325,-8.694 C199.201497,-9.70200504 198.936,-10.8269938 198.936,-12.069 C198.936,-13.3110062 199.201497,-14.435995 199.7325,-15.444 C200.263503,-16.452005 201.032995,-17.2439971 202.041,-17.82 C203.049005,-18.3960029 204.227993,-18.684 205.578,-18.684 C206.928007,-18.684 208.106995,-18.3960029 209.115,-17.82 C210.123005,-17.2439971 210.892497,-16.452005 211.4235,-15.444 C211.954503,-14.435995 212.22,-13.3110062 212.22,-12.069 Z M201.879,-12.069 C201.879,-10.8809941 202.207497,-9.91800369 202.8645,-9.18 C203.521503,-8.44199631 204.425994,-8.073 205.578,-8.073 C206.730006,-8.073 207.634497,-8.44199631 208.2915,-9.18 C208.948503,-9.91800369 209.277,-10.8809941 209.277,-12.069 C209.277,-13.2570059 208.948503,-14.2199963 208.2915,-14.958 C207.634497,-15.6960037 206.730006,-16.065 205.578,-16.065 C204.425994,-16.065 203.521503,-15.6960037 202.8645,-14.958 C202.207497,-14.2199963 201.879,-13.2570059 201.879,-12.069 Z M220.725,0.324 C219.392993,0.324 218.227505,0.09900225 217.2285,-0.351 C216.229495,-0.80100225 215.460003,-1.43549591 214.92,-2.2545 C214.379997,-3.07350409 214.11,-4.03199451 214.11,-5.13 C214.11,-6.2100054 214.357498,-7.13249617 214.8525,-7.8975 C215.347502,-8.66250382 216.053995,-9.20699838 216.972,-9.531 C216.179996,-9.85500162 215.550002,-10.3994962 215.082,-11.1645 C214.613998,-11.9295038 214.38,-12.7979951 214.38,-13.77 C214.38,-14.7240048 214.645497,-15.5744963 215.1765,-16.3215 C215.707503,-17.0685037 216.454495,-17.6489979 217.4175,-18.063 C218.380505,-18.4770021 219.482994,-18.684 220.725,-18.684 C221.967006,-18.684 223.069495,-18.4770021 224.0325,-18.063 C224.995505,-17.6489979 225.742497,-17.0685037 226.2735,-16.3215 C226.804503,-15.5744963 227.07,-14.7240048 227.07,-13.77 C227.07,-12.8159952 226.827002,-11.9520039 226.341,-11.178 C225.854998,-10.4039961 225.216004,-9.85500162 224.424,-9.531 C225.342005,-9.20699838 226.057497,-8.66250382 226.5705,-7.8975 C227.083503,-7.13249617 227.34,-6.2100054 227.34,-5.13 C227.34,-4.03199451 227.070003,-3.07350409 226.53,-2.2545 C225.989997,-1.43549591 225.220505,-0.80100225 224.2215,-0.351 C223.222495,0.09900225 222.057007,0.324 220.725,0.324 Z M220.725,-10.773 C221.697005,-10.773 222.466497,-11.0204975 223.0335,-11.5155 C223.600503,-12.0105025 223.884,-12.662996 223.884,-13.473 C223.884,-14.3190042 223.600503,-14.9849976 223.0335,-15.471 C222.466497,-15.9570024 221.697005,-16.2 220.725,-16.2 C219.752995,-16.2 218.983503,-15.9570024 218.4165,-15.471 C217.849497,-14.9849976 217.566,-14.3190042 217.566,-13.473 C217.566,-12.662996 217.862997,-12.0105025 218.457,-11.5155 C219.051003,-11.0204975 219.806995,-10.773 220.725,-10.773 Z M220.725,-2.295 C221.769005,-2.295 222.605997,-2.56949726 223.236,-3.1185 C223.866003,-3.66750275 224.181,-4.40099541 224.181,-5.319 C224.181,-6.23700459 223.866003,-6.97049725 223.236,-7.5195 C222.605997,-8.06850274 221.769005,-8.343 220.725,-8.343 C219.716995,-8.343 218.889003,-8.06400279 218.241,-7.506 C217.592997,-6.94799721 217.269,-6.2190045 217.269,-5.319 C217.269,-4.40099541 217.583997,-3.66750275 218.214,-3.1185 C218.844003,-2.56949726 219.680995,-2.295 220.725,-2.295 Z" id="hello@dim-sum.co-+31"></path>
        </g>
    </g>
</svg>